<?xml version="1.0" standalone="no"?>
<!DOCTYPE svg PUBLIC "-//W3C//DTD SVG 20010904//EN"
 "http://www.w3.org/TR/2001/REC-SVG-20010904/DTD/svg10.dtd">
<svg version="1.0" xmlns="http://www.w3.org/2000/svg"
 width="1080.000000pt" height="720.000000pt" viewBox="0 0 1080.000000 720.000000"
 preserveAspectRatio="xMidYMid meet">

<g transform="translate(0.000000,720.000000) scale(0.100000,-0.100000)"
fill="#000000" stroke="none">
<path d="M1023 7185 c-3 -9 -1 -35 5 -58 6 -23 14 -55 17 -72 l7 -30 -32 30
c-17 16 -33 39 -36 51 -4 16 -11 20 -30 16 -13 -2 -27 -8 -29 -12 -3 -5 9 -34
26 -65 37 -68 26 -89 -26 -49 -31 24 -65 32 -65 16 0 -5 11 -19 24 -31 31 -29
16 -54 -22 -40 -13 5 -33 9 -45 9 l-22 -1 22 -18 c21 -17 21 -20 5 -27 -9 -4
-23 -6 -30 -5 -8 1 -26 -6 -40 -16 -15 -10 -40 -23 -55 -30 -35 -16 -28 -29
29 -53 50 -22 54 -31 22 -53 -39 -25 -63 -50 -95 -97 -17 -25 -41 -56 -53 -70
l-22 -25 21 -14 c21 -13 21 -13 -5 -44 -18 -22 -24 -37 -19 -55 4 -15 0 -34
-10 -49 -19 -29 -37 -124 -25 -136 4 -5 16 12 25 37 15 38 21 45 37 40 28 -9
54 20 79 85 11 31 37 76 57 101 20 24 43 60 50 80 7 19 20 55 29 79 9 25 24
54 34 65 10 12 36 42 58 67 27 30 48 45 63 45 16 -1 28 10 43 38 28 54 49 60
43 13 -4 -37 4 -47 42 -47 9 0 24 -7 31 -16 11 -14 8 -20 -21 -45 -32 -26 -42
-28 -112 -29 -74 0 -102 -10 -76 -27 20 -13 79 -34 126 -45 48 -11 54 -30 20
-59 -19 -15 -20 -18 -7 -19 14 0 18 -15 23 -77 3 -43 8 -94 12 -114 5 -33 2
-40 -36 -75 -39 -36 -42 -42 -37 -81 6 -56 -11 -71 -48 -41 l-27 21 -18 -23
c-14 -18 -21 -21 -32 -13 -18 14 -142 10 -161 -6 -11 -9 -21 -10 -35 -2 -25
14 -95 8 -100 -8 -2 -7 -15 -17 -29 -22 -20 -7 -32 -4 -66 20 -80 55 -88 70
-90 158 l-2 78 -30 3 c-16 2 -34 10 -40 18 -5 8 -21 13 -35 12 -19 -2 -28 4
-42 35 -19 39 -46 48 -68 22 -10 -12 -17 -12 -52 2 -40 16 -40 16 -62 -12 -19
-24 -28 -27 -54 -22 l-32 6 0 -694 c0 -598 2 -695 14 -695 8 0 17 4 20 9 3 5
27 14 52 20 26 7 68 23 95 36 59 30 59 30 59 4 0 -16 4 -19 23 -14 12 4 31 15
42 25 11 10 33 22 49 26 16 4 31 15 33 24 6 22 70 37 86 21 14 -14 87 -14 87
-1 0 13 63 4 97 -12 33 -16 54 -140 28 -167 -3 -3 -20 -10 -38 -16 -25 -8 -32
-16 -32 -35 0 -18 6 -26 23 -28 12 -2 22 2 22 8 0 8 10 10 24 8 38 -7 45 3 60
79 18 97 18 96 90 89 70 -8 138 -30 181 -60 37 -26 106 -58 112 -52 9 9 35
354 37 481 l1 130 26 -3 c25 -3 26 0 38 75 19 123 20 118 -14 118 l-29 0 -12
95 c-7 52 -9 119 -7 148 4 35 1 62 -7 78 -11 19 -12 43 -4 107 5 45 7 122 4
170 -10 164 25 172 42 10 1 -7 11 -22 23 -33 l22 -21 -1 88 c-1 48 3 107 7
131 8 42 1 52 -21 30 -8 -8 -15 -9 -22 -2 -14 14 -15 100 -2 117 11 13 9 98
-3 130 -10 25 4 36 19 14 14 -19 41 -23 51 -7 3 5 12 7 20 4 9 -4 16 2 19 18
3 12 8 37 12 53 10 45 7 109 -5 113 -6 2 -11 10 -11 18 0 9 -7 14 -17 12 -13
-2 -19 5 -21 25 -3 22 -8 27 -31 27 -25 0 -28 -3 -23 -27 5 -25 3 -26 -11 -15
-9 8 -13 20 -10 28 4 11 -6 14 -44 14 -27 0 -54 -5 -61 -12 -9 -9 -15 -9 -24
0 -17 17 -37 15 -45 -3z m165 -251 c-5 -28 -28 -29 -28 -1 0 13 3 27 7 30 10
11 25 -9 21 -29z m-56 -606 c-15 -15 -26 -4 -18 18 5 13 9 15 18 6 9 -9 9 -15
0 -24z"/>
<path d="M1358 7178 c-21 -21 -23 -43 -6 -62 10 -11 18 -9 45 8 18 12 35 29
38 38 4 9 16 20 27 24 27 8 44 -14 53 -69 4 -23 16 -64 26 -90 21 -53 25 -122
8 -133 -8 -4 -7 -9 2 -15 11 -6 10 -20 -4 -74 -11 -41 -15 -79 -11 -101 4 -25
2 -40 -9 -52 -12 -13 -15 -37 -13 -112 2 -54 8 -96 14 -98 17 -5 25 18 12 33
-8 9 -9 15 -2 15 6 0 13 14 17 30 10 46 44 64 95 50 35 -10 45 -9 60 5 16 15
21 15 53 1 30 -12 38 -22 47 -58 6 -24 16 -60 21 -82 13 -47 6 -69 -19 -62
-16 6 -17 1 -11 -51 3 -32 4 -62 2 -66 -3 -5 7 -22 23 -38 20 -21 27 -39 28
-71 1 -41 0 -43 -29 -44 -75 -3 -72 -2 -71 -40 1 -50 -18 -61 -84 -48 -36 8
-53 7 -58 0 -35 -46 -58 -266 -41 -391 7 -57 9 -150 5 -252 l-6 -163 42 -20
c35 -17 45 -18 67 -7 18 8 26 21 27 40 1 15 4 30 8 34 8 9 53 -34 59 -58 7
-25 -7 -33 -23 -14 -17 21 -29 19 -23 -3 2 -10 -3 -24 -11 -31 -17 -14 -22
-41 -8 -41 5 0 17 7 28 15 27 20 28 20 58 -25 15 -23 31 -38 36 -35 5 3 10
-16 12 -41 2 -26 8 -49 15 -51 19 -6 26 42 13 81 -8 27 -8 40 1 57 10 20 8 26
-19 48 -51 44 -67 124 -32 156 12 10 18 25 15 32 -2 8 -1 12 4 9 4 -3 17 1 27
9 10 8 29 15 40 15 13 0 37 18 60 45 22 25 43 45 47 45 5 0 21 9 35 19 15 10
32 20 37 21 32 9 66 49 81 94 9 28 27 65 39 81 12 17 25 40 29 51 4 13 24 28
51 38 45 17 67 15 64 -7 -4 -36 3 -68 16 -73 8 -3 36 5 62 17 29 14 74 26 112
29 50 4 66 9 75 24 6 11 19 29 29 40 9 11 17 25 17 31 0 6 14 21 30 33 36 27
37 25 6 -35 -14 -27 -36 -79 -50 -118 -15 -38 -40 -85 -56 -104 -33 -38 -36
-48 -16 -74 11 -14 16 -15 22 -5 6 9 10 4 15 -17 4 -17 19 -63 33 -103 29 -81
34 -120 9 -57 -9 22 -25 54 -36 70 -17 27 -18 28 -12 5 4 -14 9 -63 11 -110 1
-47 3 -87 3 -90 1 -3 12 -17 26 -32 14 -15 36 -53 50 -84 14 -31 28 -55 31
-51 3 3 0 15 -6 27 -14 26 -8 36 10 15 12 -15 6 -66 -8 -64 -18 3 -32 -2 -32
-11 0 -5 7 -10 16 -10 8 0 12 -5 9 -11 -4 -6 2 -5 14 3 17 11 25 11 42 0 12
-7 22 -12 23 -10 18 31 25 61 22 98 -2 25 -5 51 -5 58 -2 22 -19 13 -29 -15
-10 -27 -10 -26 -11 13 -1 23 -8 81 -17 130 -19 102 -20 124 -10 179 6 39 6
39 -8 15 -30 -49 -14 -3 29 85 40 84 43 87 41 50 -2 -23 -8 -50 -14 -62 -14
-26 -18 -113 -8 -173 11 -62 18 -69 32 -35 l12 30 7 -28 c4 -16 2 -47 -4 -69
-7 -22 -10 -42 -8 -45 3 -2 8 9 12 26 3 16 14 36 22 43 15 12 16 10 10 -17
-36 -162 -35 -155 -18 -155 14 -1 14 -2 -1 -14 -19 -14 -24 -36 -10 -36 10 0
52 43 52 54 0 4 -6 4 -12 0 -7 -4 2 9 21 29 33 35 34 38 21 64 -8 16 -16 32
-18 36 -2 5 5 3 16 -4 12 -7 23 -22 26 -33 6 -25 -26 -97 -65 -145 -16 -19
-27 -37 -25 -39 6 -5 46 21 46 31 0 4 12 26 26 49 15 23 30 53 33 67 9 33 31
39 31 9 0 -53 -91 -198 -125 -198 -7 0 -16 -7 -19 -16 -8 -22 -7 -54 2 -54 6
0 30 -54 62 -144 10 -28 11 -28 28 -10 22 25 37 28 96 26 46 -3 81 11 71 28
-3 5 -1 11 5 15 5 3 10 2 10 -3 0 -16 83 -20 119 -5 30 12 35 11 46 -4 12 -16
14 -16 38 0 32 21 37 21 37 4 0 -8 18 -33 41 -55 39 -41 40 -41 35 -15 -3 16
-10 57 -16 93 -13 84 -31 153 -41 165 -13 14 -11 25 6 25 9 0 12 6 8 17 -5 13
-2 15 11 10 10 -4 25 -7 35 -7 10 0 22 -14 29 -32 l13 -33 19 23 c22 27 27 27
32 5 3 -15 6 -14 17 6 13 24 5 42 -21 47 -7 2 -25 6 -41 9 -30 6 -89 37 -126
66 -13 11 -31 19 -40 19 -17 1 -61 33 -61 45 0 4 16 5 36 2 l37 -6 -8 42 c-19
113 -19 113 -3 99 8 -6 18 -9 21 -5 4 3 16 -6 28 -21 27 -34 50 -46 110 -55
43 -7 49 -6 49 9 0 21 -20 30 -66 30 -45 0 -46 27 -1 35 35 7 97 3 113 -8 7
-4 10 17 9 60 -2 84 -12 92 -89 73 -60 -14 -66 -27 -24 -47 14 -7 31 -19 37
-27 10 -12 4 -16 -36 -21 -26 -3 -60 -9 -75 -11 -35 -7 -36 9 -3 48 29 34 34
58 7 37 -47 -38 -59 -40 -126 -18 -36 12 -73 29 -84 39 -11 10 -38 28 -61 39
-45 23 -44 17 -19 115 9 37 47 86 66 86 11 0 22 34 22 72 0 15 5 30 10 33 6 3
10 16 10 29 0 12 14 40 30 63 34 47 32 63 -11 82 -16 7 -28 15 -25 18 7 7 184
-80 213 -104 48 -40 134 -203 94 -179 -5 3 -12 -1 -15 -10 -10 -26 -7 -44 8
-44 8 0 17 -7 20 -16 9 -23 7 -36 -4 -29 -21 13 -9 -15 25 -57 19 -24 41 -58
49 -75 12 -26 21 -33 44 -33 17 0 37 -9 48 -21 17 -19 18 -37 16 -245 l-2
-224 22 -4 c13 -3 64 -7 113 -11 160 -10 170 -14 181 -72 4 -19 13 -37 20 -40
8 -3 14 -13 14 -24 0 -10 29 -59 65 -110 48 -68 65 -86 65 -68 0 17 3 20 11
12 6 -6 17 -9 24 -7 8 3 19 -13 29 -43 19 -54 19 -53 11 -108 -5 -32 -1 -48
19 -80 14 -22 35 -59 46 -82 11 -23 31 -55 44 -70 33 -40 42 -61 56 -128 16
-76 59 -143 83 -128 5 3 5 8 -1 12 -7 4 -6 17 3 39 21 48 40 40 38 -15 -1 -7
3 -11 7 -8 10 6 20 -19 20 -50 0 -13 4 -25 9 -27 5 -1 12 -18 14 -37 3 -19 17
-46 31 -60 l26 -26 0 24 c0 13 5 21 12 19 12 -4 26 -42 32 -91 2 -16 9 -34 16
-40 10 -9 11 -9 5 1 -6 11 -3 11 14 0 25 -16 28 -30 4 -21 -12 4 -8 -5 12 -28
41 -45 95 -125 95 -138 0 -6 4 -11 9 -11 5 0 18 -3 28 -6 16 -5 16 -4 -2 11
-17 14 -18 17 -5 25 8 5 20 10 25 10 6 0 3 -5 -5 -10 -13 -8 -13 -11 -1 -19 7
-5 11 -13 7 -19 -9 -15 32 -80 54 -87 11 -3 34 -23 51 -43 l32 -37 -20 35
c-12 22 -17 43 -13 55 4 11 4 56 0 100 -6 69 -6 104 -1 186 1 8 7 24 15 35 14
19 15 19 40 -5 14 -14 26 -31 26 -39 0 -8 7 -29 16 -48 13 -28 15 -55 11 -142
-3 -59 -8 -119 -10 -135 l-4 -27 66 37 66 38 170 1 c107 0 180 5 198 12 16 7
46 12 67 12 54 0 67 23 131 225 l53 170 -2 235 c-2 220 3 299 15 286 3 -3 9
-51 13 -106 4 -68 11 -106 21 -116 13 -13 18 -6 38 58 41 129 70 184 112 214
42 29 123 54 176 54 41 0 160 39 240 79 60 30 62 33 66 73 3 42 4 42 5 -8 3
-71 19 -113 62 -159 21 -22 40 -52 44 -67 6 -25 9 -27 26 -16 11 7 20 18 20
23 0 6 6 20 14 31 14 17 14 16 11 -21 -6 -60 3 -83 34 -90 22 -5 28 -11 28
-34 0 -35 24 -91 39 -91 24 0 26 -34 3 -53 -19 -15 -21 -23 -14 -65 11 -72 12
-76 20 -95 5 -11 1 -30 -9 -50 -20 -37 -19 -128 2 -135 7 -2 12 6 12 22 0 16
5 24 13 21 15 -6 41 14 52 40 8 19 9 19 12 -2 2 -12 -3 -33 -12 -47 -10 -15
-15 -39 -13 -63 4 -36 4 -37 14 -14 l11 24 15 -22 c15 -22 16 -22 32 19 12 30
21 40 34 38 9 -2 26 4 37 14 26 25 36 19 62 -33 22 -43 24 -96 4 -109 -17 -10
1 -55 31 -79 16 -13 32 -21 35 -17 4 3 -2 12 -12 20 -10 7 -15 18 -11 24 4 7
2 12 -3 12 -14 0 -14 47 0 56 6 3 16 1 22 -5 16 -16 27 -14 27 5 0 8 5 12 11
8 7 -4 9 -21 5 -46 -4 -26 -3 -37 4 -33 16 10 12 84 -6 114 -9 15 -29 36 -45
46 -17 12 -25 23 -19 29 5 5 2 18 -7 32 -14 22 -14 24 1 24 9 0 16 -5 16 -11
0 -6 9 -9 19 -6 14 3 18 1 14 -9 -3 -8 0 -14 6 -14 6 0 11 11 11 25 0 48 -57
135 -89 135 -10 0 -6 -9 14 -30 36 -38 28 -47 -19 -19 -35 20 -47 39 -26 39 6
0 8 10 5 23 -3 12 -1 45 4 72 7 39 9 44 11 20 1 -18 4 -23 7 -12 6 24 30 21
36 -4 7 -24 26 -21 41 7 6 10 13 21 16 24 3 3 12 21 22 40 18 39 45 73 128
160 l58 61 11 -49 c9 -34 9 -56 2 -76 -15 -39 -13 -46 4 -14 17 30 21 87 11
135 -5 23 -2 42 13 72 12 22 21 47 21 56 0 18 -4 18 56 -2 130 -44 257 -133
357 -251 36 -43 89 -100 119 -127 l53 -50 7 150 c5 83 10 242 12 355 11 574
18 798 28 828 l10 32 276 2 c152 1 364 2 470 2 191 1 194 1 213 25 23 28 27
122 6 139 -17 14 -1399 8 -1579 -7 -70 -6 -193 -11 -275 -11 -81 0 -161 -2
-178 -4 -16 -3 -65 6 -108 20 -110 34 -193 39 -312 20 -59 -9 -121 -13 -153
-9 -41 4 -56 2 -71 -11 -15 -13 -51 -18 -182 -25 -211 -10 -2585 -9 -2595 2
-5 4 -2 22 5 40 18 43 25 100 17 143 -11 55 -124 168 -204 205 -36 16 -77 29
-91 29 -20 0 -22 3 -12 9 12 7 5 14 -27 26 -37 15 -56 35 -33 35 4 0 22 14 39
30 18 17 34 30 36 30 2 0 42 24 88 52 72 46 91 53 148 58 65 5 65 5 68 38 2
17 0 32 -5 33 -138 10 -163 31 -106 91 34 35 66 36 81 3 6 -14 17 -25 24 -25
9 0 9 3 0 12 -17 17 -15 53 3 68 20 16 105 6 165 -21 l45 -20 18 22 c17 21 19
21 35 6 15 -16 15 -18 -3 -31 -14 -10 -17 -18 -10 -25 14 -14 153 6 172 25 8
8 22 14 32 14 10 0 45 13 77 30 64 32 111 38 120 15 7 -16 -74 -115 -94 -115
-7 0 -15 -8 -19 -17 -3 -10 -17 -27 -31 -39 -18 -14 -23 -26 -19 -39 7 -16 21
-17 175 -13 l167 3 38 30 c31 25 36 34 32 57 -12 55 64 61 204 16 68 -22 107
-44 152 -85 25 -23 33 -24 120 -21 52 1 146 -1 209 -6 l115 -8 37 28 c21 16
37 32 38 36 0 3 -28 12 -62 20 -75 16 -83 33 -32 67 34 23 35 26 17 38 -25 19
-90 7 -126 -23 -16 -13 -33 -24 -37 -24 -5 0 -30 13 -56 30 -26 16 -69 37 -96
46 -44 14 -49 19 -46 42 2 21 9 28 32 30 16 2 33 -1 39 -7 20 -20 34 -11 59
37 23 45 24 50 9 68 -9 11 -23 18 -33 16 -10 -2 -19 5 -23 18 -3 11 -10 18
-15 15 -4 -3 -7 6 -6 20 1 28 1 28 26 15 15 -8 17 -6 13 8 -6 23 52 152 69
153 7 1 17 1 21 0 46 -8 94 -7 113 1 17 8 27 8 39 -2 23 -19 85 -4 85 20 0 32
44 36 79 9 33 -26 39 -60 16 -79 -8 -7 -15 -20 -15 -30 0 -38 -62 -40 -115 -5
-20 15 -39 24 -41 23 -1 -2 0 -25 4 -52 6 -44 10 -49 42 -60 29 -9 35 -16 38
-41 11 -132 20 -150 65 -120 36 24 77 6 77 -34 0 -21 7 -34 23 -42 32 -17 37
-30 20 -47 -10 -10 -11 -18 -4 -25 6 -6 11 -24 11 -39 0 -23 4 -28 25 -28 18
0 31 -9 43 -30 20 -35 29 -36 71 -13 29 17 30 17 55 -6 26 -24 27 -24 133 -14
69 7 119 17 139 29 30 17 32 17 59 -4 34 -27 70 -28 110 -4 36 21 38 21 90 -2
35 -15 58 -16 185 -10 80 4 156 6 170 4 31 -3 511 -8 1170 -13 550 -3 505 3
603 -79 32 -26 62 -48 66 -48 4 0 21 -12 37 -26 45 -39 223 -122 310 -144 44
-11 93 -27 109 -34 66 -31 163 -63 210 -70 53 -8 191 -73 239 -113 22 -19 35
-23 55 -17 14 4 49 7 76 6 28 0 56 4 62 10 18 14 304 16 334 2 42 -20 246 -35
324 -24 39 6 78 13 88 16 53 17 120 -36 96 -75 -13 -20 -5 -56 10 -47 5 3 7
-2 4 -13 -6 -24 11 -35 43 -27 22 6 24 9 13 22 -10 13 -10 17 1 24 14 9 54
-14 80 -45 7 -8 21 -15 31 -15 11 0 19 -6 19 -14 0 -7 10 -25 21 -40 l21 -27
12 22 c16 32 34 34 47 5 7 -14 16 -26 21 -26 4 0 8 378 8 840 l0 840 -2567 0
c-2678 0 -2628 0 -2653 -39 -5 -9 -9 -8 -14 4 -5 14 -9 15 -20 6 -11 -10 -16
-8 -21 9 -6 20 -9 20 -548 20 l-541 -1 -22 -25 c-19 -20 -32 -24 -82 -24 -60
0 -84 12 -75 36 3 8 -1 14 -11 14 -11 0 -16 -9 -16 -26 0 -27 -24 -53 -48 -54
-7 0 -12 8 -11 18 3 30 0 33 -22 21 -28 -14 -48 3 -29 26 11 13 0 15 -99 15
l-111 0 0 -30 c0 -25 -4 -30 -23 -30 -15 0 -29 11 -40 30 -17 28 -22 30 -77
30 l-58 0 18 -37 c81 -163 83 -173 29 -173 -24 0 -40 10 -75 49 -28 31 -55 51
-71 53 -17 2 -32 14 -43 33 -23 41 -43 42 -62 2 -24 -50 -48 -45 -48 10 l0 44
-50 -28 c-39 -22 -52 -25 -61 -16 -10 10 -9 17 4 31 9 10 17 22 17 25 0 4 -31
7 -70 7 -53 0 -70 -3 -70 -14 0 -23 -26 -26 -43 -5 -16 18 -41 19 -758 19
-700 0 -740 -1 -735 -17 9 -29 -8 -47 -38 -39 -20 5 -26 13 -26 32 l0 26 -127
-3 c-106 -3 -130 -6 -145 -21z m1658 -28 c24 -17 44 -35 44 -40 0 -5 37 -28
81 -52 45 -24 84 -50 86 -59 2 -8 17 -20 34 -26 16 -6 33 -23 39 -37 5 -15 20
-31 33 -37 13 -6 29 -27 37 -47 l13 -36 -48 -42 -48 -41 20 -29 c43 -62 42
-64 -59 -142 -106 -82 -132 -71 -163 68 -9 41 -25 89 -36 107 -21 33 -118 93
-152 93 -19 0 -20 -10 -3 -51 11 -27 -19 -30 -74 -7 -45 19 -50 24 -50 53 0
18 8 43 18 56 11 13 27 45 36 70 l18 46 36 -18 c23 -11 41 -14 47 -8 16 16 55
10 92 -16 55 -37 73 -10 33 50 -11 17 -20 40 -20 53 0 18 -10 27 -49 43 -30
13 -53 30 -60 45 -15 34 -15 34 20 34 18 0 49 -13 75 -30z m1462 11 c3 -8 -1
-12 -9 -9 -7 2 -15 10 -17 17 -3 8 1 12 9 9 7 -2 15 -10 17 -17z m-2574 -6 c4
-11 -2 -15 -22 -14 -17 1 -20 3 -9 6 9 2 17 9 17 14 0 14 7 11 14 -6z m4736 6
c0 -6 -4 -13 -10 -16 -5 -3 -10 1 -10 9 0 9 5 16 10 16 6 0 10 -4 10 -9z
m-3322 -109 c-4 -20 -27 -26 -48 -12 -18 12 -3 25 30 27 15 1 20 -3 18 -15z
m1949 -25 c-6 -17 -55 -29 -63 -16 -9 15 6 47 24 52 22 5 46 -17 39 -36z
m-2022 13 c3 -5 1 -10 -4 -10 -6 0 -11 5 -11 10 0 6 2 10 4 10 3 0 8 -4 11
-10z m953 -13 c2 -12 -3 -17 -17 -17 -12 0 -21 6 -21 13 0 31 32 34 38 4z
m332 -12 c10 -12 10 -18 -1 -32 -7 -10 -15 -20 -16 -22 -1 -2 -9 2 -17 8 -19
16 -56 5 -56 -15 0 -8 -4 -13 -9 -10 -5 3 -8 17 -8 31 0 21 3 24 19 19 14 -4
24 1 34 15 18 25 37 27 54 6z m-2768 -31 c-5 -25 -26 -38 -30 -18 -5 23 6 46
21 41 6 -2 10 -13 9 -23z m3174 -18 c11 -8 33 -16 49 -18 39 -4 46 -34 12 -47
-14 -6 -28 -15 -32 -20 -12 -21 -43 -11 -69 23 -26 34 -32 57 -19 69 11 11 37
8 59 -7z m-1116 -5 c0 -11 -39 -25 -47 -18 -3 3 -2 10 2 16 8 13 45 15 45 2z
m821 -13 c1 -7 1 -34 -1 -60 -1 -26 4 -62 10 -80 11 -31 10 -38 -13 -74 -28
-45 -72 -79 -82 -64 -13 20 -36 9 -41 -20 -4 -16 -11 -27 -16 -24 -5 3 -12 -3
-15 -15 -6 -23 -41 -29 -61 -9 -13 13 -15 9 -16 -42 -1 -36 -18 -48 -46 -30
-10 6 -15 28 -16 72 0 35 -6 110 -13 166 -11 90 -10 107 3 127 17 25 68 43 74
25 3 -8 8 -8 17 0 10 8 14 5 19 -14 8 -34 39 -50 65 -34 10 6 17 18 14 25 -3
7 0 13 7 13 8 0 10 -9 6 -24 -5 -20 -1 -25 19 -29 14 -2 28 0 31 5 3 5 12 1
20 -9 11 -15 13 -16 14 -2 0 9 -9 24 -20 34 -19 18 -27 55 -13 68 11 12 53 8
54 -5z m751 -10 c-7 -7 -12 -8 -12 -2 0 14 12 26 19 19 2 -3 -1 -11 -7 -17z
m-1495 -26 c-3 -10 -14 -39 -24 -67 l-19 -50 -58 0 c-74 0 -83 11 -56 65 26
50 109 96 143 79 11 -7 17 -17 14 -27z m1929 7 c3 -6 2 -15 -4 -21 -12 -12
-55 8 -47 23 8 12 42 12 51 -2z m-1000 -54 c19 -8 38 -14 42 -14 27 4 44 -5
52 -26 5 -14 17 -28 25 -31 8 -4 15 -13 15 -22 0 -20 -29 -52 -47 -52 -7 0
-25 -8 -40 -17 -24 -16 -26 -16 -39 2 -13 17 -15 17 -32 2 -10 -9 -27 -17 -37
-17 -15 0 -17 5 -11 38 4 20 7 44 7 52 -3 58 -1 73 10 86 14 17 12 17 55 -1z
m5864 -25 c0 -33 -2 -35 -31 -19 -20 10 -20 11 -3 30 24 27 34 24 34 -11z
m-8231 -25 c35 -52 33 -79 -6 -64 -35 13 -40 12 -47 -16 -7 -29 -40 -34 -72
-11 -19 14 -19 15 2 38 12 13 29 37 38 55 9 17 24 34 33 36 10 3 19 5 20 6 1
0 15 -19 32 -44z m2281 -19 c0 -8 -7 -21 -15 -30 -8 -8 -15 -19 -15 -25 0 -5
-4 -21 -9 -35 -7 -18 -15 -23 -30 -19 -24 6 -20 36 12 90 19 33 57 46 57 19z
m-2810 -6 c0 -5 -7 -10 -16 -10 -8 0 -12 5 -9 10 3 6 10 10 16 10 5 0 9 -4 9
-10z m3887 -34 c-6 -17 -44 -25 -62 -13 -21 16 -10 45 18 49 22 4 50 -19 44
-36z m727 -79 c16 -12 16 -14 -4 -40 -21 -26 -21 -29 -6 -46 9 -10 16 -25 16
-35 0 -13 -5 -16 -22 -10 -43 12 -58 34 -58 84 0 26 3 50 7 53 11 11 48 8 67
-6z m-4051 -13 c11 -11 -5 -34 -24 -34 -18 0 -26 20 -12 33 8 9 28 9 36 1z
m2322 -13 c17 -4 42 -4 56 0 34 9 89 -17 89 -42 0 -22 -41 -35 -66 -21 -13 7
-28 5 -52 -7 -34 -15 -35 -15 -50 7 -8 12 -25 22 -38 22 -26 0 -38 14 -30 35
6 16 39 18 91 6z m-1262 -21 c14 -11 30 -20 35 -20 5 0 13 -7 16 -16 6 -14 1
-16 -36 -10 -48 8 -79 31 -71 52 7 19 26 17 56 -6z m947 -75 c0 -8 -2 -15 -4
-15 -2 0 -6 7 -10 15 -3 8 -1 15 4 15 6 0 10 -7 10 -15z m-2063 -119 c49 -47
52 -64 21 -92 -17 -15 -31 -19 -53 -15 -32 7 -42 29 -44 107 -2 66 7 66 76 0z
m2503 34 c0 -5 -7 -10 -15 -10 -8 0 -15 5 -15 10 0 6 7 10 15 10 8 0 15 -4 15
-10z m-1716 -74 c45 -29 59 -33 97 -29 34 4 50 1 69 -15 l25 -20 -70 -75 c-58
-62 -76 -75 -102 -76 -17 -1 -35 -6 -39 -12 -9 -16 -81 -5 -104 16 -10 9 -16
24 -13 34 3 10 -3 33 -12 50 -15 30 -15 34 5 78 41 94 63 101 144 49z m-741
-180 c-1 -16 3 -26 12 -26 24 0 26 -17 5 -43 -11 -14 -20 -31 -20 -39 0 -19
-20 -37 -34 -32 -13 5 -9 83 6 101 6 8 5 20 -3 35 l-12 23 -10 -28 c-10 -32
-33 -36 -42 -7 -8 24 1 41 18 34 8 -3 24 0 38 5 34 14 44 8 42 -23z m725 -104
c-4 -21 -44 -28 -64 -12 -20 17 -18 29 9 39 28 11 59 -5 55 -27z m-268 9 c0
-20 -32 -37 -50 -26 -5 3 -10 15 -10 26 0 14 7 19 30 19 23 0 30 -5 30 -19z
m-140 -165 c0 -3 -15 -14 -32 -26 l-33 -22 28 26 c27 25 37 31 37 22z m47 -33
c20 -41 0 -92 -50 -127 -34 -25 -39 -27 -33 -10 4 10 14 44 22 74 8 30 19 57
24 58 6 2 10 10 10 18 0 23 14 16 27 -13z m277 -138 c-4 -9 -16 -21 -28 -27
-19 -10 -19 -9 3 16 28 30 33 32 25 11z m-69 -15 c-10 -11 -21 -18 -23 -15 -3
3 3 12 14 20 27 20 30 18 9 -5z m15 -34 c0 -2 -7 -7 -16 -10 -8 -3 -12 -2 -9
4 6 10 25 14 25 6z m-1381 -87 c-16 -10 -23 -4 -14 10 3 6 11 8 17 5 6 -4 5
-9 -3 -15z m1188 -45 c-3 -4 3 -18 13 -32 11 -13 20 -33 20 -43 0 -9 6 -19 13
-22 6 -2 9 -7 6 -11 -3 -3 -26 12 -49 36 -25 23 -39 43 -32 46 7 2 12 10 12
18 0 8 5 14 12 14 6 0 8 -3 5 -6z m3696 -82 c4 -21 3 -31 -3 -27 -6 3 -10 2
-10 -4 0 -16 -42 -51 -60 -51 -9 0 -25 -16 -36 -35 -10 -20 -24 -33 -30 -31
-21 8 -74 -32 -74 -56 0 -13 -3 -32 -5 -43 -7 -25 35 -47 74 -39 24 5 30 1 40
-24 15 -37 2 -63 -40 -79 -23 -9 -31 -8 -45 8 -16 17 -19 18 -26 4 -12 -20
-138 -22 -138 -2 0 18 30 60 73 99 31 30 37 42 37 76 0 40 -1 41 -28 36 -35
-7 -66 21 -41 37 8 5 29 8 46 5 32 -5 33 -3 48 47 8 28 20 54 27 58 17 11 39
-1 48 -27 13 -33 37 -21 57 28 10 26 19 35 23 27 9 -14 30 19 30 48 0 16 1 16
13 -2 8 -11 17 -35 20 -53z m-3903 -39 c25 -57 25 -61 -1 -37 -27 24 -48 65
-42 82 7 19 21 5 43 -45z m4157 -25 c-2 -13 -4 -3 -4 22 0 25 2 35 4 23 2 -13
2 -33 0 -45z m-3827 12 c0 -5 -2 -10 -4 -10 -3 0 -8 5 -11 10 -3 6 -1 10 4 10
6 0 11 -4 11 -10z m4116 -97 c-9 -9 -41 65 -37 87 3 21 7 16 22 -29 11 -30 17
-56 15 -58z m-4129 61 c-3 -3 -12 -4 -19 -1 -8 3 -5 6 6 6 11 1 17 -2 13 -5z
m180 -26 c13 -12 23 -29 23 -39 0 -24 -26 -42 -49 -34 -24 7 -41 57 -23 63 7
2 12 10 12 18 0 20 10 18 37 -8z m1147 -4 c9 -3 16 -12 16 -19 0 -18 -24 -25
-88 -25 -64 0 -88 10 -79 34 5 12 21 16 71 16 35 0 71 -3 80 -6z m861 -6 c17
-1 53 -1 80 0 28 0 88 1 135 0 47 0 113 3 148 7 71 8 232 -19 232 -40 0 -16
-109 -45 -167 -45 -27 1 -78 6 -114 14 -48 9 -89 10 -148 3 -54 -6 -96 -6
-123 1 -27 7 -60 7 -103 0 -111 -19 -201 13 -165 57 12 15 27 16 105 11 49 -4
104 -8 120 -8z m-445 -13 c15 -18 5 -35 -23 -35 -31 0 -51 15 -44 34 8 20 50
21 67 1z m1390 1 c96 -4 98 -4 77 -20 -12 -9 -28 -11 -45 -7 -14 4 -47 3 -72
-2 -89 -17 -128 -19 -151 -7 -19 10 -24 10 -34 -4 -15 -20 -78 -22 -94 -3 -8
10 -7 18 3 32 11 15 21 17 59 12 28 -4 49 -2 53 4 4 7 29 8 68 5 33 -4 95 -8
136 -10z m-1605 -6 c-3 -5 -12 -10 -20 -10 -8 0 -17 5 -20 10 -4 6 5 10 20 10
15 0 24 -4 20 -10z m-1095 -50 c0 -5 -4 -10 -10 -10 -5 0 -10 5 -10 10 0 6 5
10 10 10 6 0 10 -4 10 -10z m1608 -122 c5 -7 13 -34 16 -61 5 -29 16 -55 29
-67 20 -19 20 -20 1 -20 -25 -1 -46 -19 -62 -53 -6 -15 -17 -25 -22 -22 -11 7
-14 193 -4 219 7 19 28 21 42 4z m1522 -19 c9 -16 8 -19 -12 -15 -21 3 -24 7
-19 37 2 14 18 3 31 -22z m-1788 4 c6 -27 -14 -83 -29 -83 -14 0 -19 80 -6 93
12 13 32 7 35 -10z m2013 -23 c7 -12 -2 -12 -30 0 -19 8 -19 9 2 9 12 1 25 -3
28 -9z m-1125 -46 c7 -19 9 -45 6 -58 -4 -18 0 -26 19 -34 30 -14 31 -38 5
-70 -14 -16 -28 -22 -47 -20 -28 3 -28 3 -31 90 -4 118 23 169 48 92z m-1073
-6 c-3 -7 -5 -2 -5 12 0 14 2 19 5 13 2 -7 2 -19 0 -25z m2186 12 c-4 -5 -19
-10 -32 -12 -28 -4 -41 18 -14 24 25 6 56 -3 46 -12z m-2353 -20 c0 -23 -29
-35 -36 -15 -7 18 14 47 27 39 5 -3 9 -13 9 -24z m526 -27 c-3 -7 -10 -13 -16
-13 -11 0 -13 30 -3 56 6 15 7 14 15 -6 5 -13 6 -30 4 -37z m1442 0 c-3 -25
-8 -28 -41 -31 l-39 -3 34 30 c41 38 50 38 46 4z m-1208 -17 c0 -20 -36 -66
-43 -55 -1 2 -9 12 -17 22 -12 16 -10 21 16 42 33 26 44 24 44 -9z m-355 14
c3 -5 2 -10 -4 -10 -5 0 -13 5 -16 10 -3 6 -2 10 4 10 5 0 13 -4 16 -10z
m-1315 -10 c-8 -5 -19 -10 -25 -10 -5 0 -3 5 5 10 8 5 20 10 25 10 6 0 3 -5
-5 -10z m3674 -55 c5 -29 4 -36 -3 -25 -6 8 -11 28 -11 44 0 39 6 31 14 -19z
m-3154 14 c0 -11 -4 -18 -10 -14 -5 3 -7 12 -3 20 7 21 13 19 13 -6z m-648
-44 c-6 -34 -12 -32 -12 6 0 16 4 28 9 25 4 -3 6 -17 3 -31z m3008 9 c0 -17 4
-23 13 -18 9 5 9 3 -1 -7 -10 -11 -14 -11 -21 -1 -6 10 -13 11 -34 1 -32 -14
-38 -11 -31 18 4 14 16 23 33 26 14 2 29 5 34 6 4 0 7 -11 7 -25z m30 6 c0 -5
-5 -10 -11 -10 -5 0 -7 5 -4 10 3 6 8 10 11 10 2 0 4 -4 4 -10z m-2244 -20
c28 0 13 -18 -20 -24 -42 -8 -67 1 -59 21 4 11 14 13 36 9 16 -3 36 -6 43 -6z
m2845 -23 c-10 -9 -11 -8 -5 6 3 10 9 15 12 12 3 -3 0 -11 -7 -18z m-568 6
c-7 -2 -13 -11 -13 -19 0 -8 6 -11 15 -8 20 8 19 -15 0 -44 -19 -26 -114 -83
-173 -101 -33 -11 -47 -12 -68 -2 -22 9 -31 9 -50 -4 -31 -20 -89 -19 -125 2
-43 26 -42 39 5 66 67 37 96 42 113 17 18 -25 53 -26 82 -1 29 26 81 37 91 21
11 -18 90 28 90 51 0 17 14 27 35 27 6 0 4 -2 -2 -5z m-98 -15 c-11 -6 -23
-16 -27 -22 -5 -8 -8 -7 -8 1 0 12 28 32 45 32 6 0 1 -5 -10 -11z m529 -45 c3
-10 9 -24 12 -30 3 -7 1 -13 -5 -13 -6 0 -11 7 -11 15 0 8 -7 15 -15 15 -8 0
-15 7 -15 15 0 21 26 19 34 -2z m-2469 -6 c50 -3 130 -8 178 -12 l88 -8 -7
-31 c-9 -44 -12 -46 -38 -36 -13 5 -53 12 -88 16 -34 3 -70 12 -78 20 -10 9
-20 10 -30 4 -8 -5 -32 -10 -52 -10 -28 0 -40 5 -49 21 -8 15 -14 18 -22 10
-15 -15 -70 -14 -85 1 -28 28 -14 40 41 35 28 -3 93 -7 142 -10z m2663 -84
c-10 -2 -26 -2 -35 0 -10 3 -2 5 17 5 19 0 27 -2 18 -5z m-152 -79 c22 -9 34
-19 27 -21 -11 -4 -73 23 -73 32 0 7 4 6 46 -11z m-2683 -34 c-3 -12 -8 -19
-11 -16 -5 6 5 36 12 36 2 0 2 -9 -1 -20z m75 -4 c3 -12 -1 -17 -10 -14 -7 3
-15 13 -16 22 -3 12 1 17 10 14 7 -3 15 -13 16 -22z m128 -2 c9 -36 -1 -120
-16 -139 -11 -14 -14 -13 -26 2 -14 18 -19 118 -8 147 10 26 43 19 50 -10z
m689 -26 c6 -5 10 -65 10 -136 1 -101 5 -134 19 -160 9 -18 15 -39 13 -45 -2
-7 3 -18 10 -25 11 -12 11 -17 1 -30 -8 -9 -13 -47 -14 -101 -1 -93 -10 -141
-27 -141 -6 0 -19 -7 -29 -17 -17 -15 -17 -17 -1 -36 13 -13 18 -36 18 -76 l0
-57 -29 10 c-45 17 -60 48 -57 124 13 340 13 349 -4 405 -21 74 -43 73 -46 -1
-1 -21 -3 -18 -10 13 -14 67 1 235 23 268 19 26 23 27 67 21 25 -3 51 -11 56
-16z m755 -43 c0 -63 -11 -119 -21 -103 -10 15 -12 129 -3 153 10 26 24 -2 24
-50z m-324 40 c4 -9 0 -53 -7 -98 -7 -45 -12 -85 -11 -89 3 -12 -46 -9 -54 3
-8 14 27 182 40 191 17 12 26 9 32 -7z m-916 -10 c0 -35 -25 -155 -32 -155 -9
0 -11 131 -2 154 8 20 34 21 34 1z m84 -16 c3 -17 6 -46 6 -64 0 -46 11 -95
21 -95 5 0 9 31 9 69 0 38 3 76 6 85 9 23 34 20 36 -4 9 -101 20 -175 29 -186
21 -26 4 -294 -19 -302 -9 -3 -12 6 -11 30 2 38 -16 88 -31 88 -34 0 -50 -22
-50 -68 0 -26 7 -56 15 -66 8 -11 15 -27 15 -37 0 -20 -44 -33 -68 -20 -15 9
-17 33 -18 228 -1 121 3 233 8 252 7 24 7 39 -2 56 -9 17 -9 28 -1 44 18 32
47 27 55 -10z m974 15 c14 -9 37 -14 60 -12 l37 3 5 -160 c3 -88 4 -163 2
-168 -2 -4 -10 0 -18 8 -21 20 -30 19 -48 -7 -22 -30 -31 -16 -32 50 -1 64
-16 78 -33 30 -7 -18 -21 -51 -31 -72 -18 -39 -18 -40 1 -64 25 -32 20 -36
-20 -16 l-33 16 6 185 c4 102 11 194 17 204 12 23 56 25 87 3z m-378 -8 c0 -3
-4 -8 -10 -11 -5 -3 -10 -1 -10 4 0 6 5 11 10 11 6 0 10 -2 10 -4z m1893 -47
c3 -13 1 -19 -6 -16 -15 5 -22 37 -9 37 5 0 12 -9 15 -21z m-1986 -46 c-3 -10
-5 -4 -5 12 0 17 2 24 5 18 2 -7 2 -21 0 -30z m2172 8 c8 -5 11 -16 8 -25 -5
-11 -16 -14 -44 -10 -42 5 -65 21 -42 28 12 4 36 10 59 15 3 0 11 -3 19 -8z
m-3070 -97 c0 -36 4 -71 7 -77 5 -8 4 -9 -3 -2 -13 12 -25 158 -13 150 4 -3 8
-34 9 -71z m74 -73 c-8 -20 -16 -37 -18 -39 -6 -7 -4 112 2 122 4 6 12 -3 19
-19 9 -23 9 -36 -3 -64z m1041 54 c3 -8 2 -35 -3 -60 -5 -25 -6 -45 -4 -45 2
0 1 -5 -3 -11 -14 -23 -25 22 -19 76 7 54 18 69 29 40z m1533 -37 c17 -18 36
-44 43 -58 12 -23 10 -22 -15 5 -15 17 -39 42 -53 58 -14 15 -21 27 -16 27 6
0 24 -15 41 -32z m32 -93 c0 -5 -6 -1 -14 9 -8 11 -15 24 -15 30 0 5 7 1 15
-10 8 -10 14 -23 14 -29z m-2085 10 c3 -8 -3 -19 -13 -25 -15 -8 -20 -6 -24
10 -3 11 -1 18 3 15 5 -3 11 -1 15 5 8 14 12 13 19 -5z m2124 -30 c-3 -3 -9 2
-12 12 -6 14 -5 15 5 6 7 -7 10 -15 7 -18z m-68 -25 c0 13 1 13 10 0 13 -20
13 -77 0 -85 -5 -3 -10 3 -10 14 0 10 -5 21 -10 23 -6 2 -13 21 -16 43 -5 39
-5 40 10 15 10 -16 15 -19 16 -10z m-1250 10 c0 -5 -4 -10 -10 -10 -5 0 -10 5
-10 10 0 6 5 10 10 10 6 0 10 -4 10 -10z m1346 -45 c9 -40 -4 -27 -16 15 -6
20 -6 30 -1 24 5 -5 13 -22 17 -39z m-35 -42 c-12 -20 -14 -14 -5 12 4 9 9 14
11 11 3 -2 0 -13 -6 -23z m-1270 -161 c-7 -12 -10 7 -9 68 2 110 12 128 16 27
2 -42 -2 -85 -7 -95z m-152 99 c17 -16 31 -37 32 -48 0 -10 2 -31 3 -46 1 -15
-4 -33 -11 -39 -10 -8 -13 -4 -13 20 0 45 -10 62 -35 62 -34 0 -47 21 -32 53
6 15 15 27 18 27 4 0 21 -13 38 -29z m-921 -146 c-3 -47 -23 -65 -32 -30 -7
27 8 65 25 65 5 0 9 -16 7 -35z m2251 3 c11 -15 10 -16 -13 -5 -16 8 -20 14
-13 19 6 4 12 6 12 5 0 -1 6 -10 14 -19z m-2259 -78 c0 -5 -2 -10 -4 -10 -3 0
-8 5 -11 10 -3 6 -1 10 4 10 6 0 11 -4 11 -10z m130 -90 c8 -16 6 -26 -11 -49
-12 -17 -19 -36 -15 -46 3 -9 2 -14 -3 -11 -15 10 -2 126 15 126 2 0 8 -9 14
-20z m843 -57 c2 -5 -1 -24 -9 -43 l-12 -35 -1 43 c-1 37 10 55 22 35z m-14
-124 c-12 -21 -14 -22 -17 -6 -6 28 6 53 19 40 8 -8 7 -18 -2 -34z m-779 -6
c-11 -17 -11 -17 -6 0 3 10 6 24 7 30 0 9 2 9 5 0 3 -7 0 -20 -6 -30z"/>
<path d="M5747 4473 c-11 -10 -8 -71 3 -78 18 -11 32 44 17 66 -8 10 -17 16
-20 12z"/>
<path d="M5205 6768 c-4 -9 4 -27 17 -41 18 -19 28 -23 41 -16 19 11 23 29 5
29 -6 0 -22 10 -35 21 -19 19 -23 20 -28 7z"/>
<path d="M3698 6436 c-28 -10 -37 -30 -19 -40 5 -3 14 -28 21 -56 l12 -50 60
0 c59 0 59 0 56 28 -3 24 -7 27 -38 27 -34 0 -35 2 -41 43 -7 53 -16 62 -51
48z"/>
<path d="M1224 6356 c-3 -8 -4 -31 -2 -52 2 -27 8 -40 21 -42 14 -3 17 5 17
52 0 44 -3 56 -15 56 -9 0 -18 -6 -21 -14z"/>
<path d="M1363 6258 c-6 -7 -13 -21 -16 -31 -4 -10 -15 -17 -24 -16 -28 2 -36
0 -70 -21 -43 -26 -35 -55 13 -47 22 4 37 1 45 -9 21 -25 36 -15 48 30 6 25
15 48 21 51 12 8 13 55 1 55 -5 0 -13 -6 -18 -12z"/>
<path d="M1280 5970 c-25 -48 -25 -60 -2 -60 28 0 42 21 42 62 0 49 -14 48
-40 -2z"/>
<path d="M3313 5724 c-37 -18 -58 -41 -67 -70 -6 -18 2 -25 49 -49 53 -25 57
-26 80 -11 14 9 25 23 25 31 0 7 9 16 19 20 19 6 38 66 26 85 -10 15 -96 11
-132 -6z m67 -49 c17 -20 4 -35 -30 -35 -36 0 -49 19 -25 37 24 17 40 17 55
-2z"/>
<path d="M1455 5633 c-9 -20 -15 -55 -15 -78 1 -59 -10 -106 -32 -136 -17 -23
-18 -29 -6 -48 14 -23 45 -37 56 -26 4 4 7 35 7 69 0 42 6 71 18 89 23 35 25
167 2 167 -8 0 -22 -17 -30 -37z"/>
<path d="M2776 5575 c-9 -26 -7 -32 5 -12 6 10 9 21 6 23 -2 3 -7 -2 -11 -11z"/>
<path d="M1377 5504 c-8 -8 1 -24 14 -24 5 0 9 7 9 15 0 15 -12 20 -23 9z"/>
<path d="M10303 5388 c-20 -25 -23 -89 -6 -115 12 -17 18 -50 19 -102 2 -103
2 -101 19 -101 8 0 15 -7 15 -15 0 -8 -4 -15 -9 -15 -5 0 -1 -27 11 -60 18
-54 18 -65 6 -103 -12 -39 -16 -42 -53 -47 -22 -3 -52 -13 -67 -24 -16 -10
-34 -16 -42 -13 -8 3 -26 -3 -39 -14 -14 -10 -35 -19 -47 -19 -11 0 -35 -14
-53 -30 -18 -17 -40 -33 -49 -36 -16 -5 -23 -35 -21 -92 1 -25 -42 0 -93 54
-28 30 -57 54 -63 54 -6 0 -11 11 -11 25 0 30 -38 55 -51 34 -13 -21 -8 -110
8 -141 9 -19 21 -28 37 -28 13 0 29 -7 36 -15 7 -8 19 -15 26 -15 24 0 4 -25
-35 -42 -44 -21 -58 -22 -63 -6 -3 8 -12 7 -34 -4 -46 -25 -138 -58 -159 -58
-11 0 -28 -7 -37 -14 -18 -13 -99 -14 -130 -2 -9 4 -31 6 -49 4 -30 -3 -34 -7
-40 -39 -3 -20 -15 -49 -26 -64 l-20 -29 28 -47 c24 -41 26 -49 13 -60 -8 -6
-18 -26 -22 -43 -8 -30 -10 -31 -72 -33 -35 -1 -74 -4 -87 -8 l-24 -6 21 -28
c11 -16 20 -36 20 -45 0 -20 14 -21 30 -1 16 19 39 19 46 1 8 -22 -46 -71 -94
-85 -29 -8 -47 -20 -54 -37 -6 -13 -14 -24 -17 -24 -18 -1 -42 -30 -35 -42 25
-39 10 -67 -39 -75 -33 -5 -37 -3 -37 16 0 25 -3 26 -35 5 -13 -9 -28 -13 -33
-10 -8 5 -21 -42 -27 -98 -1 -10 -10 -23 -19 -28 -21 -12 -21 -76 1 -100 9
-11 11 -18 5 -18 -7 0 -12 -8 -12 -18 0 -25 187 -206 270 -262 65 -44 199
-144 233 -175 21 -19 70 -37 161 -59 68 -17 69 -17 83 4 45 63 131 113 225
131 153 28 157 27 328 -68 138 -77 138 -78 197 -167 26 -39 69 -99 97 -133 94
-114 201 -326 245 -485 41 -147 61 -326 60 -548 0 -113 -4 -223 -8 -245 l-9
-40 -1 48 -1 48 -52 -4 c-49 -4 -52 -6 -67 -45 -9 -22 -19 -44 -23 -48 -5 -4
-8 -17 -9 -28 0 -12 -3 -15 -6 -8 -2 6 -19 12 -35 12 -17 0 -28 -3 -25 -7 4
-3 -9 -17 -28 -30 -19 -13 -35 -28 -35 -32 0 -14 33 -23 40 -10 4 6 16 9 26 7
25 -5 21 -47 -6 -70 -11 -9 -20 -20 -20 -25 0 -15 -44 -37 -48 -24 -2 6 -10
11 -17 11 -21 0 -75 50 -75 70 0 10 -7 23 -15 30 -12 10 -15 9 -16 -6 0 -14
-4 -11 -13 10 -12 27 -14 28 -24 10 -10 -18 -11 -17 -21 9 -6 16 -11 33 -11
38 0 6 -9 8 -20 4 -22 -7 -23 -4 -55 95 -9 30 -30 83 -46 116 -16 34 -29 67
-29 73 0 6 -14 39 -31 74 l-30 62 6 -95 c4 -52 11 -116 16 -142 10 -54 57
-443 64 -533 3 -33 10 -103 16 -155 6 -52 11 -142 10 -200 0 -58 2 -129 5
-157 5 -46 8 -53 27 -53 38 -1 118 -26 127 -39 4 -8 13 -10 19 -6 8 5 10 -1 5
-19 -3 -15 -2 -26 4 -26 14 0 21 35 11 51 -5 8 -8 21 -8 29 0 8 5 4 10 -10
l10 -25 19 25 c34 44 27 24 -44 -118 -11 -24 -30 -51 -40 -60 -18 -16 -19 -16
-13 10 8 29 0 58 -14 58 -5 0 -9 -6 -9 -14 0 -13 -4 -13 -27 0 -60 31 -64 25
-62 -91 1 -58 5 -105 9 -105 13 0 -18 -99 -44 -137 -14 -21 -26 -41 -26 -45 0
-5 158 -8 350 -8 l350 0 0 2675 c0 1665 -4 2675 -9 2675 -6 0 -13 -4 -16 -10
-3 -5 -19 -10 -35 -10 -16 0 -33 -6 -37 -13 -4 -7 -21 -18 -37 -25 -23 -10
-27 -17 -23 -38 3 -17 -1 -28 -13 -34 -10 -5 -25 -29 -34 -52 -25 -63 -66
-118 -88 -118 -14 0 -17 5 -12 24 4 19 -3 32 -32 62 -23 22 -33 39 -26 42 16
5 15 34 -3 58 -8 10 -15 32 -15 47 0 21 -13 40 -47 72 -53 49 -56 50 -70 33z
m-823 -1173 c19 4 30 3 30 -4 0 -10 -14 -15 -34 -12 -4 1 -13 -2 -20 -7 -6 -6
-25 -13 -42 -16 -23 -5 -34 -2 -49 14 -22 24 -21 25 30 42 37 12 41 12 47 -5
6 -15 14 -17 38 -12z m1280 -1755 c0 -5 -4 -10 -10 -10 -5 0 -10 5 -10 10 0 6
5 10 10 10 6 0 10 -4 10 -10z m-468 -1569 c11 -50 15 -88 10 -98 -7 -11 -11
-2 -15 31 -8 54 -24 89 -38 81 -5 -4 -9 -17 -9 -31 0 -15 -4 -23 -11 -19 -6 4
-8 13 -5 21 3 7 1 16 -4 19 -6 4 -10 12 -10 19 0 20 40 68 53 63 6 -2 19 -40
29 -86z m-24 -76 c0 -16 -2 -15 -8 5 -4 14 -8 34 -8 45 0 16 2 15 8 -5 4 -14
8 -34 8 -45z m135 -260 c-3 -9 -8 -14 -10 -11 -3 3 -2 9 2 15 9 16 15 13 8 -4z"/>
<path d="M3555 5281 c3 -5 0 -13 -6 -16 -5 -4 -8 -13 -5 -21 3 -7 1 -16 -4
-19 -6 -4 -10 -1 -10 5 0 15 -42 8 -48 -7 -2 -9 7 -13 27 -13 38 0 51 -23 58
-104 8 -84 18 -100 36 -57 13 31 15 32 25 15 6 -10 11 -14 11 -9 0 6 -6 21
-14 35 -8 14 -14 46 -15 72 0 47 -33 128 -52 128 -5 0 -7 -4 -3 -9z"/>
<path d="M207 5153 c-4 -3 -7 -11 -7 -17 0 -6 5 -5 12 2 6 6 9 14 7 17 -3 3
-9 2 -12 -2z"/>
<path d="M8917 5083 c-4 -3 -7 -17 -7 -30 0 -32 -68 -106 -93 -99 -10 2 -27
-4 -38 -15 -16 -16 -17 -22 -7 -39 10 -15 10 -22 0 -32 -6 -6 -12 -30 -12 -52
0 -22 -9 -66 -21 -98 -11 -33 -18 -67 -14 -76 3 -9 10 -50 15 -91 4 -40 13
-78 20 -85 6 -6 45 -11 93 -11 l82 0 3 -37 c3 -32 0 -38 -16 -38 -26 0 -69
-45 -77 -81 -13 -59 50 -112 106 -88 52 21 74 83 47 132 -13 24 -12 131 2 157
5 9 27 22 49 29 23 6 42 15 42 19 1 4 3 16 4 27 1 11 16 65 33 120 17 55 37
122 44 148 11 43 15 47 35 42 18 -4 23 -1 23 15 0 12 -7 20 -18 20 -9 0 -23 9
-30 21 -9 14 -19 18 -33 14 -28 -9 -62 25 -80 78 -7 23 -18 45 -24 49 -13 10
-119 10 -128 1z"/>
<path d="M2727 4924 c-15 -13 -37 -24 -47 -24 -10 0 -22 -5 -25 -11 -22 -34
49 -12 86 27 30 32 21 38 -14 8z"/>
<path d="M3710 4915 c-7 -8 -16 -12 -21 -9 -5 3 -9 0 -9 -6 0 -7 -9 -24 -19
-39 -11 -15 -18 -36 -16 -47 2 -10 6 -35 10 -54 l5 -34 -30 29 -30 29 0 -32
c0 -25 -6 -35 -22 -41 -21 -8 -21 -10 -5 -16 10 -4 20 -5 24 -2 11 12 63 -24
63 -43 0 -15 7 -19 40 -18 57 1 76 37 40 76 -11 11 -16 23 -11 27 5 3 11 1 13
-4 1 -4 14 -12 28 -16 22 -7 23 -6 11 9 -11 13 -11 16 0 16 10 0 10 3 1 12 -7
7 -12 20 -12 30 0 13 -10 20 -30 25 -29 5 -39 18 -22 25 12 4 24 98 13 98 -5
0 -14 -7 -21 -15z m14 -220 c4 -11 -2 -15 -21 -15 -21 0 -24 2 -13 15 7 8 16
15 20 15 4 0 10 -7 14 -15z"/>
<path d="M8720 4900 c0 -5 5 -10 10 -10 6 0 10 5 10 10 0 6 -4 10 -10 10 -5 0
-10 -4 -10 -10z"/>
<path d="M120 4891 c0 -13 -38 -21 -43 -8 -6 18 -37 -1 -37 -23 0 -24 37 -28
46 -5 8 20 21 19 47 -5 26 -24 60 -23 65 3 3 12 -4 20 -17 24 -12 3 -21 9 -21
14 0 5 -9 9 -20 9 -11 0 -20 -4 -20 -9z"/>
<path d="M247 4870 c4 -14 -2 -23 -21 -31 -36 -17 -35 -49 2 -47 15 1 30 7 35
13 4 6 10 7 15 0 4 -5 15 -16 25 -24 15 -12 17 -11 17 13 0 19 -6 27 -25 32
-13 3 -24 9 -23 13 3 27 -4 51 -16 51 -9 0 -12 -7 -9 -20z"/>
<path d="M1280 4846 c0 -9 -12 -16 -27 -18 -27 -3 -28 -5 -26 -58 1 -30 6 -68
13 -84 l11 -29 20 39 c12 21 25 43 30 48 13 14 49 18 49 6 0 -12 41 7 52 24
12 17 9 76 -2 76 -6 0 -22 -7 -36 -16 -23 -16 -26 -16 -48 5 -26 25 -36 27
-36 7z"/>
<path d="M5 4799 c4 -19 6 -42 5 -51 -5 -37 -2 -345 4 -403 3 -33 5 -76 5 -96
0 -20 5 -47 10 -61 6 -15 5 -31 -1 -43 -6 -10 -10 -49 -9 -86 1 -37 -3 -70 -9
-74 -15 -9 -13 -165 3 -166 36 -2 322 3 325 5 1 2 -2 156 -8 342 -10 306 -13
341 -30 359 -10 11 -26 39 -35 63 -10 23 -21 42 -25 42 -5 0 -14 16 -20 35 -6
19 -17 38 -23 42 -7 5 -19 21 -27 37 -8 16 -30 39 -49 52 -31 21 -35 22 -57 7
-24 -15 -60 -11 -49 6 3 5 0 13 -6 17 -9 5 -10 -2 -4 -27z m185 -798 c0 -12
-28 -22 -34 -12 -3 5 -3 11 1 15 9 9 33 7 33 -3z"/>
<path d="M3625 4780 c3 -5 8 -10 11 -10 2 0 4 5 4 10 0 6 -5 10 -11 10 -5 0
-7 -4 -4 -10z"/>
<path d="M1320 4698 c-15 -33 -6 -61 17 -56 23 4 28 38 9 63 -14 19 -15 19
-26 -7z"/>
<path d="M370 4696 c0 -2 7 -6 15 -10 8 -3 15 -1 15 4 0 6 -7 10 -15 10 -8 0
-15 -2 -15 -4z"/>
<path d="M416 4635 c4 -8 10 -12 15 -9 11 6 2 24 -11 24 -5 0 -7 -7 -4 -15z"/>
<path d="M3630 4604 c0 -8 5 -12 10 -9 6 3 10 10 10 16 0 5 -4 9 -10 9 -5 0
-10 -7 -10 -16z"/>
<path d="M1522 4560 c-14 -18 -22 -44 -22 -68 0 -24 -6 -45 -16 -53 -18 -15
-16 -52 10 -142 9 -32 16 -75 16 -96 0 -21 5 -64 12 -96 l11 -58 24 27 c29 34
29 46 -2 92 -24 35 -25 44 -22 133 3 53 10 136 17 184 15 101 6 124 -28 77z"/>
<path d="M1215 4364 c-13 -20 -15 -37 -10 -75 5 -38 3 -55 -10 -75 -17 -27
-13 -59 10 -68 11 -4 15 -23 15 -71 0 -59 2 -65 18 -57 9 5 23 7 30 5 6 -3 12
0 12 6 0 6 -4 11 -10 11 -11 0 -11 161 1 202 4 15 4 42 -1 60 -4 18 -11 45
-14 61 -8 34 -19 34 -41 1z"/>
<path d="M440 4325 c0 -9 6 -12 15 -9 8 4 12 10 9 15 -8 14 -24 10 -24 -6z"/>
<path d="M7534 4182 c-42 -42 -74 -111 -67 -149 4 -25 1 -32 -15 -38 -12 -3
-24 -15 -27 -26 -4 -10 -15 -24 -26 -29 -23 -13 -25 -43 -4 -60 8 -7 15 -17
15 -23 0 -6 7 -18 15 -27 14 -15 14 -36 0 -196 -8 -98 -15 -235 -15 -305 0
-70 -5 -140 -11 -156 -17 -44 -15 -114 3 -124 18 -10 168 -279 168 -302 0 -8
11 -30 24 -50 15 -22 39 -92 60 -178 32 -125 36 -156 36 -268 0 -109 -18 -330
-35 -426 -3 -16 -10 -57 -16 -90 -10 -60 -32 -159 -68 -307 l-19 -78 27 0 c26
0 126 30 188 56 17 8 35 14 41 14 5 0 15 6 21 13 6 8 30 20 53 27 91 27 178
81 295 183 65 57 146 124 180 150 34 26 111 94 170 151 59 56 160 147 223 201
63 54 153 136 200 181 47 45 95 91 107 101 15 12 25 37 32 78 22 141 117 290
192 302 19 2 36 9 37 14 7 17 71 38 138 44 37 3 77 8 89 11 28 7 57 -23 35
-36 -8 -5 -24 -16 -35 -24 -19 -14 -17 -14 17 -5 20 5 42 8 50 7 9 -2 14 14
16 60 l3 64 -40 -7 c-25 -4 -60 -1 -93 8 -29 8 -67 15 -85 15 -32 1 -83 27
-83 43 0 5 -9 9 -20 9 -11 0 -20 6 -21 13 0 6 -4 2 -9 -10 -13 -31 -30 -29
-76 8 -30 24 -34 31 -16 26 35 -8 26 9 -15 28 -21 10 -41 20 -45 22 -5 2 -8
-6 -8 -18 0 -14 18 -39 46 -66 26 -24 40 -43 32 -43 -8 0 -38 22 -68 49 -30
28 -74 59 -98 71 -24 12 -63 38 -87 58 -23 21 -55 46 -70 57 -14 11 -40 32
-58 46 -18 15 -73 54 -124 88 -51 33 -137 98 -193 144 -55 46 -117 92 -138
103 -60 31 -120 73 -192 135 -38 32 -80 61 -94 65 -14 3 -26 10 -26 14 0 5
-10 12 -22 16 -13 4 -30 15 -39 25 -9 11 -25 19 -36 19 -10 0 -23 4 -28 8 -6
5 -26 15 -45 22 -48 19 -108 59 -145 98 -18 17 -37 32 -44 32 -6 0 -11 3 -11
8 0 4 -12 21 -27 37 -71 80 -66 69 -43 98 12 15 18 31 15 37 -12 20 -62 10
-91 -18z m584 -566 c26 -13 63 -35 82 -48 19 -13 55 -32 80 -41 28 -11 80 -50
134 -101 l90 -83 -38 -36 c-21 -21 -42 -37 -47 -37 -10 0 -12 -21 -3 -44 8
-22 26 -20 47 4 14 17 67 29 67 16 0 -2 3 -11 6 -20 4 -11 1 -16 -10 -16 -9 0
-16 -6 -16 -12 0 -7 -6 -25 -14 -39 -11 -22 -11 -29 0 -44 17 -23 18 -40 2
-57 -7 -7 -13 -26 -14 -43 -1 -16 -5 -44 -9 -62 -6 -29 -4 -34 24 -51 23 -14
28 -21 19 -30 -7 -7 -18 -12 -25 -12 -21 0 -15 -35 9 -45 12 -6 23 -15 25 -21
5 -14 -79 -44 -123 -44 -32 0 -33 -1 -27 -36 6 -33 4 -36 -18 -32 -15 2 -25
11 -27 24 -3 20 -7 21 -125 16 -96 -3 -125 -1 -134 9 -6 8 -13 59 -16 114 -4
55 -11 163 -17 240 -6 77 -8 163 -6 190 3 28 7 121 8 208 2 121 6 157 16 157
7 0 34 -11 60 -24z m1202 -626 c0 -5 -4 -10 -10 -10 -5 0 -7 -7 -4 -15 4 -8 1
-15 -5 -15 -6 0 -11 11 -11 25 0 16 6 25 15 25 8 0 15 -4 15 -10z m-10 -60 c0
-5 -4 -10 -10 -10 -5 0 -10 5 -10 10 0 6 5 10 10 10 6 0 10 -4 10 -10z m-1040
-259 c0 -5 -7 -11 -15 -15 -9 -3 -15 0 -15 9 0 8 7 15 15 15 8 0 15 -4 15 -9z
m125 -35 c-18 -28 -39 -33 -51 -14 -9 14 25 40 43 34 7 -3 13 0 13 6 0 6 3 9
6 6 3 -4 -2 -18 -11 -32z m235 -71 c10 -12 10 -19 2 -27 -13 -13 -42 6 -42 28
0 19 24 18 40 -1z m-127 -2 c-7 -2 -19 -2 -25 0 -7 3 -2 5 12 5 14 0 19 -2 13
-5z m-223 -28 c0 -8 -4 -15 -9 -15 -13 0 -22 16 -14 24 11 11 23 6 23 -9z
m395 -15 c3 -5 1 -10 -4 -10 -6 0 -11 5 -11 10 0 6 2 10 4 10 3 0 8 -4 11 -10z
m-179 -16 c-3 -9 -6 -27 -6 -40 0 -18 -5 -24 -21 -24 -16 0 -20 5 -16 20 3 13
0 20 -10 20 -10 0 -12 -6 -8 -20 5 -15 2 -20 -13 -20 -13 0 -21 9 -24 25 -4
19 -1 25 12 25 10 0 20 7 24 15 3 9 18 15 37 15 24 0 30 -3 25 -16z m88 8 c2
-4 1 -14 -4 -22 -7 -11 -12 -12 -21 -3 -6 6 -8 16 -5 22 8 13 23 14 30 3z m74
-46 c-4 -28 -48 -36 -48 -9 0 11 5 24 11 30 17 17 40 4 37 -21z m-695 -4 c19
-17 8 -32 -24 -32 -25 0 -64 35 -55 49 10 15 54 6 79 -17z m812 14 c12 -11 10
-15 -11 -25 -30 -13 -35 -13 -53 -2 -12 8 -12 12 -2 25 16 20 48 21 66 2z
m173 -24 c3 -16 -2 -22 -16 -22 -28 0 -45 23 -29 39 17 17 42 9 45 -17z m-588
-138 c0 -17 -22 -14 -28 4 -2 7 3 12 12 12 9 0 16 -7 16 -16z"/>
<path d="M8450 3345 c0 -8 4 -15 9 -15 5 0 11 7 15 15 3 9 0 15 -9 15 -8 0
-15 -7 -15 -15z"/>
<path d="M8293 3254 c-27 -11 -11 -24 28 -24 28 0 39 4 37 13 -5 13 -44 19
-65 11z"/>
<path d="M4002 4136 c3 -26 13 -55 22 -65 9 -10 16 -23 16 -29 0 -7 21 -34 47
-60 47 -47 47 -47 24 -10 -29 49 -91 176 -91 188 0 5 -5 12 -11 16 -9 5 -10
-6 -7 -40z"/>
<path d="M450 4130 c0 -5 5 -10 11 -10 5 0 7 5 4 10 -3 6 -8 10 -11 10 -2 0
-4 -4 -4 -10z"/>
<path d="M6039 3959 c-3 -125 -7 -159 -20 -171 -9 -9 -26 -43 -39 -75 -12 -32
-26 -67 -30 -78 -5 -11 -12 -35 -15 -52 -4 -18 -10 -33 -15 -33 -4 0 -11 -17
-15 -37 -4 -21 -14 -46 -22 -55 -13 -15 -13 -18 -2 -18 12 0 12 -2 0 -9 -12
-8 -12 -13 2 -35 34 -51 10 -116 -43 -116 -8 0 -32 -9 -53 -20 -41 -22 -81
-25 -154 -11 -26 5 -85 15 -131 22 -75 10 -84 14 -93 37 -10 27 -54 72 -69 72
-15 0 -27 -31 -34 -86 -5 -42 -3 -55 14 -77 25 -32 26 -52 3 -42 -56 23 -65
13 -108 -115 -17 -49 -27 -66 -43 -68 -36 -6 -47 32 -23 82 26 52 26 55 3 49
-11 -2 -31 6 -48 20 -35 29 -88 57 -108 57 -13 0 -12 -7 4 -42 30 -66 27 -80
-17 -76 -31 2 -41 9 -58 40 -20 35 -22 36 -33 17 -18 -29 -52 -25 -52 6 0 14
-5 25 -11 25 -7 0 -8 -12 -5 -32 5 -28 4 -29 -4 -10 -7 16 -18 22 -43 22 -46
0 -134 27 -140 44 -8 19 -88 29 -119 15 -21 -9 -33 -8 -61 6 -29 13 -39 14
-55 4 -16 -10 -29 -9 -67 3 -47 16 -105 9 -105 -13 0 -4 -12 3 -26 16 -33 30
-49 23 -30 -13 8 -15 17 -34 20 -44 3 -12 16 -16 48 -16 24 0 54 -5 68 -10 14
-5 84 -8 155 -7 90 2 138 -1 155 -10 14 -7 53 -16 86 -20 60 -7 62 -7 71 -43
5 -20 9 -55 7 -77 -1 -22 -3 -48 -3 -57 -1 -9 -16 -24 -35 -33 -23 -11 -33
-22 -29 -31 3 -8 -1 -14 -11 -14 -9 0 -16 -7 -16 -15 0 -9 -9 -15 -21 -15 -12
0 -23 -8 -26 -20 -6 -24 3 -22 -148 -25 -66 -1 -131 2 -145 7 -19 7 -27 5 -37
-8 -19 -26 -16 -34 11 -34 17 0 29 -9 39 -29 l14 -29 -62 -7 c-62 -6 -63 -7
-81 -48 -37 -87 -148 -160 -208 -138 -21 9 -24 8 -19 -7 4 -9 11 -20 17 -24
11 -8 62 0 89 14 13 7 19 4 25 -14 10 -27 7 -150 -8 -308 -5 -63 -14 -167 -20
-230 -5 -63 -14 -151 -20 -195 -5 -44 -12 -125 -15 -180 -6 -136 -22 -259 -39
-314 -43 -140 -47 -433 -7 -543 17 -48 21 -81 21 -191 0 -74 3 -216 7 -315 l6
-182 1243 0 c1123 0 1242 2 1248 16 9 23 7 69 -3 79 -5 6 -18 39 -30 75 -12
36 -26 72 -30 81 -15 27 -50 231 -56 324 -3 50 -9 124 -13 165 -8 70 -5 421 3
447 4 12 29 12 41 0 3 -3 13 1 22 9 13 14 18 12 50 -18 25 -24 33 -27 27 -13
-4 11 -7 27 -7 37 1 18 -51 44 -67 34 -5 -4 -14 1 -19 10 -8 14 -10 12 -16
-10 -7 -27 -26 -36 -26 -12 0 8 -6 16 -14 19 -7 3 -17 23 -21 44 -7 38 -39
139 -115 358 -47 134 -84 283 -100 395 -14 95 -14 549 -1 581 12 29 28 138 30
199 2 77 13 160 22 165 11 7 3 207 -10 260 -6 22 -11 52 -11 67 l0 26 48 -25
c26 -14 52 -29 57 -33 15 -13 50 -5 50 10 0 7 8 14 18 16 13 2 16 -2 12 -17
-4 -12 -2 -19 7 -19 10 0 13 10 10 35 -5 41 13 47 30 10 12 -27 35 -33 44 -11
6 15 134 19 134 4 0 -4 7 -8 15 -8 8 0 15 5 15 11 0 6 12 9 27 7 15 -2 28 2
30 10 3 6 -1 12 -9 13 -7 0 -4 4 7 9 17 7 14 9 -13 9 -18 1 -31 -3 -28 -7 3
-5 -22 -8 -54 -8 -33 1 -60 4 -60 7 0 3 -12 4 -26 1 -21 -4 -25 -1 -22 14 4
20 3 20 108 8 44 -5 58 -3 69 10 19 22 35 20 70 -10 25 -21 36 -24 66 -18 l35
6 -47 30 c-66 42 -110 93 -105 121 1 4 -5 7 -13 7 -20 0 -31 -28 -16 -43 14
-14 14 -27 1 -27 -6 0 -15 12 -21 27 -7 20 -12 24 -18 14 -6 -9 -11 -10 -15
-2 -11 16 -26 13 -26 -5 0 -14 -3 -14 -15 -4 -8 7 -15 19 -15 26 0 7 -15 21
-32 29 -26 13 -29 13 -15 1 22 -17 35 -90 17 -101 -6 -4 -14 -4 -18 0 -4 4 -1
10 6 12 15 6 16 43 1 43 -6 0 -13 -9 -16 -20 -3 -11 -9 -20 -14 -20 -5 0 -6 6
-3 14 9 25 -27 56 -66 56 -26 0 -31 3 -20 10 12 8 10 10 -8 10 -32 0 -59 -27
-43 -43 9 -9 14 -9 20 1 9 14 41 6 41 -11 0 -6 -3 -8 -6 -4 -3 3 -17 2 -30 -3
-17 -7 -28 -5 -40 8 -10 9 -24 17 -33 17 -10 0 -18 12 -21 29 -3 17 -9 30 -15
30 -15 1 -18 -43 -5 -60 9 -10 9 -14 1 -14 -6 0 -11 4 -11 9 0 13 -54 0 -67
-17 -10 -12 -15 -13 -28 -2 -9 8 -14 22 -12 32 3 10 2 16 -3 13 -22 -14 -63
174 -54 245 26 190 30 280 10 196 l-12 -49 -12 39 c-7 21 -16 66 -21 99 -6 51
-8 36 -12 -96z m449 -531 c-5 -13 -88 -30 -88 -18 0 7 54 27 78 29 8 1 12 -5
10 -11z m120 1 c-2 -3 3 -13 10 -22 12 -14 9 -16 -27 -14 -45 1 -53 16 -18 33
23 12 41 13 35 3z m56 -25 c3 -8 2 -14 -2 -14 -13 1 -42 27 -36 33 9 9 32 -3
38 -19z m-460 -10 c3 -8 2 -12 -4 -9 -6 3 -10 10 -10 16 0 14 7 11 14 -7z m44
-49 c-3 -3 -9 2 -12 12 -6 14 -5 15 5 6 7 -7 10 -15 7 -18z m27 16 c3 -5 1
-12 -5 -16 -5 -3 -10 1 -10 9 0 18 6 21 15 7z m59 -54 c3 4 6 -1 6 -10 0 -9
-3 -17 -8 -17 -11 0 -42 38 -42 53 1 6 9 2 19 -10 10 -12 21 -19 25 -16z m56
22 c0 -5 -11 -9 -25 -9 -14 0 -25 4 -25 9 0 5 11 9 25 9 14 0 25 -4 25 -9z
m-488 -219 c-6 -52 -42 -51 -42 1 0 26 3 30 23 27 17 -2 21 -9 19 -28z m-1085
-52 c-3 -7 -5 -2 -5 12 0 14 2 19 5 13 2 -7 2 -19 0 -25z m43 22 c0 -5 -2 -10
-4 -10 -3 0 -8 5 -11 10 -3 6 -1 10 4 10 6 0 11 -4 11 -10z m-400 -400 c12 -8
11 -10 -7 -10 -13 0 -23 5 -23 10 0 13 11 13 30 0z m918 -1 c67 2 84 -3 76
-22 -5 -14 -61 -16 -105 -3 -15 4 -41 2 -66 -7 -31 -10 -66 -12 -154 -6 -88 6
-120 5 -141 -6 -23 -11 -29 -11 -39 2 -10 11 -39 14 -138 13 -69 0 -146 3
-171 8 l-45 8 55 11 c36 7 163 9 360 5 168 -3 333 -4 368 -3z m367 1 l27 -10
-26 -21 c-15 -12 -30 -18 -33 -15 -14 13 -12 56 2 56 2 0 16 -5 30 -10z
m-1180 -10 c15 -7 10 -9 -22 -9 -24 -1 -43 4 -43 9 0 12 37 12 65 0z m1345
-94 c0 -16 -19 -25 -37 -18 -23 8 -14 32 12 32 15 0 25 -6 25 -14z m-1172 -43
c-2 -12 -11 -17 -23 -15 -25 5 -29 8 -20 21 11 19 47 13 43 -6z m391 -87 c9
-10 8 -15 -2 -19 -19 -7 -41 8 -33 22 10 15 21 14 35 -3z m961 -20 c0 -8 -4
-17 -9 -20 -10 -7 -23 19 -14 28 11 11 23 6 23 -8z m-525 -186 c3 -5 1 -10 -4
-10 -6 0 -11 5 -11 10 0 6 2 10 4 10 3 0 8 -4 11 -10z m-245 -155 c0 -16 -35
-21 -44 -6 -8 12 4 21 26 21 10 0 18 -7 18 -15z m410 -81 c0 -20 -29 -30 -43
-15 -9 10 -8 16 7 26 21 16 36 11 36 -11z m-1010 -29 c0 -8 -4 -15 -9 -15 -13
0 -22 16 -14 24 11 11 23 6 23 -9z m620 -1 c0 -9 -7 -14 -17 -12 -25 5 -28 28
-4 28 12 0 21 -6 21 -16z m-1000 -39 c0 -8 -9 -15 -20 -15 -11 0 -20 7 -20 15
0 8 9 15 20 15 11 0 20 -7 20 -15z m-190 -139 c0 -9 -30 -14 -35 -6 -4 6 3 10
14 10 12 0 21 -2 21 -4z m676 -109 c13 -12 -9 -27 -40 -27 -34 0 -63 21 -52
38 5 9 81 0 92 -11z m709 -77 c3 -6 -1 -13 -10 -16 -19 -8 -30 0 -20 15 8 14
22 14 30 1z m355 -255 c0 -8 -7 -15 -15 -15 -8 0 -15 7 -15 15 0 8 7 15 15 15
8 0 15 -7 15 -15z m-190 -1115 c0 -5 -5 -10 -11 -10 -5 0 -7 5 -4 10 3 6 8 10
11 10 2 0 4 -4 4 -10z"/>
<path d="M2485 4037 c-4 -10 -2 -29 5 -42 8 -15 10 -39 6 -68 -6 -38 -4 -45
10 -43 11 1 22 -15 35 -54 19 -56 17 -41 -7 65 -29 124 -41 161 -49 142z"/>
<path d="M1511 3924 c-1 -66 -16 -161 -33 -209 -7 -22 -22 -36 -52 -48 -58
-24 -74 -21 -95 13 l-18 31 -18 -27 c-15 -23 -15 -30 -4 -51 18 -34 36 -39 59
-18 16 15 23 15 54 4 27 -10 43 -10 74 -1 33 10 41 18 46 45 12 56 11 247 0
285 l-12 37 -1 -61z"/>
<path d="M4037 3963 c-11 -11 -8 -331 3 -338 7 -4 10 55 10 169 0 97 -1 176
-3 176 -2 0 -7 -3 -10 -7z"/>
<path d="M6640 3955 c0 -9 5 -15 11 -13 6 2 11 8 11 13 0 5 -5 11 -11 13 -6 2
-11 -4 -11 -13z"/>
<path d="M2450 3895 c-15 -8 -19 -14 -10 -14 18 -1 46 16 40 23 -3 2 -16 -2
-30 -9z"/>
<path d="M6650 3890 c0 -5 5 -10 10 -10 6 0 10 5 10 10 0 6 -4 10 -10 10 -5 0
-10 -4 -10 -10z"/>
<path d="M1217 3790 c-23 -25 -26 -35 -21 -68 6 -37 37 -71 48 -53 10 16 19
151 10 151 -5 -1 -21 -14 -37 -30z"/>
<path d="M6820 3770 c0 -11 7 -20 15 -20 8 0 15 6 15 14 0 8 -7 16 -15 20 -10
4 -15 -1 -15 -14z"/>
<path d="M7071 3754 c0 -11 3 -14 6 -6 3 7 2 16 -1 19 -3 4 -6 -2 -5 -13z"/>
<path d="M0 3645 l0 -115 28 -1 c145 -4 190 -3 212 8 14 7 37 13 52 13 20 0
25 4 22 18 -7 29 11 44 62 50 27 2 52 10 56 16 15 21 8 35 -19 38 -22 2 -27 9
-31 38 -2 19 -5 36 -7 38 -1 1 -23 -4 -47 -13 -46 -15 -99 -14 -183 5 -22 5
-64 12 -92 15 l-53 6 0 -116z"/>
<path d="M6817 3729 c6 -6 9 -18 6 -26 -3 -8 0 -19 8 -24 12 -7 12 -12 1 -26
-7 -10 -18 -30 -24 -45 -6 -14 -27 -33 -45 -42 -42 -20 -46 -51 -5 -42 15 3
21 3 15 0 -24 -10 -13 -28 64 -102 72 -69 133 -102 133 -73 0 7 11 0 23 -15
24 -28 57 -29 57 -2 0 10 -2 10 -9 0 -8 -13 -16 -8 -36 26 -6 11 -3 12 13 3
15 -8 23 -6 37 9 19 21 8 29 -12 9 -8 -8 -13 -8 -17 0 -4 6 4 15 18 21 14 5
26 15 26 22 0 9 -3 9 -12 0 -20 -20 -28 -14 -28 22 0 19 -5 36 -12 38 -6 2 -8
10 -4 17 11 16 40 -24 32 -44 -3 -9 0 -12 10 -8 16 6 18 19 4 28 -7 4 -7 12 0
25 7 13 6 20 -3 23 -9 4 -9 6 1 6 6 1 12 8 12 16 0 10 7 15 18 13 13 -2 18 5
20 31 3 32 2 33 -25 26 -15 -3 -31 -13 -36 -20 -4 -8 -14 -12 -22 -8 -17 6
-76 -15 -87 -31 -10 -15 -60 14 -53 32 3 7 5 23 5 34 0 16 3 18 14 9 9 -8 16
-8 20 -2 4 5 -2 15 -11 20 -17 10 -17 12 1 26 11 8 15 15 8 15 -6 0 -14 11
-18 25 -6 26 -29 34 -37 13 -4 -10 -7 -10 -18 0 -17 16 -48 17 -32 1z m191
-290 c-3 -8 -7 -3 -11 10 -4 17 -3 21 5 13 5 -5 8 -16 6 -23z m-8 -33 c0 -5
-9 -1 -20 9 -11 10 -20 22 -20 26 0 5 9 1 20 -8 11 -10 20 -22 20 -27z"/>
<path d="M4130 3716 c0 -9 7 -16 16 -16 9 0 14 5 12 12 -6 18 -28 21 -28 4z"/>
<path d="M6574 3675 c-4 -17 -15 -42 -26 -57 -24 -34 -5 -49 22 -16 24 30 33
64 21 86 -8 14 -11 12 -17 -13z"/>
<path d="M7067 3693 c-4 -3 -7 -11 -7 -17 0 -6 5 -5 12 2 6 6 9 14 7 17 -3 3
-9 2 -12 -2z"/>
<path d="M4206 3631 c-12 -19 -18 -148 -8 -155 16 -9 19 1 27 87 4 50 3 77 -4
77 -5 0 -12 -4 -15 -9z"/>
<path d="M6435 3580 c3 -5 8 -10 11 -10 2 0 4 5 4 10 0 6 -5 10 -11 10 -5 0
-7 -4 -4 -10z"/>
<path d="M2463 3468 c-6 -7 -13 -29 -16 -48 -57 -337 -86 -439 -213 -767 -13
-34 -39 -113 -57 -177 l-32 -115 -50 31 c-28 17 -68 47 -89 66 l-40 35 -9 -24
c-5 -13 -17 -42 -28 -64 -10 -22 -29 -67 -42 -99 -26 -69 -49 -89 -73 -64 -15
15 -13 20 24 67 38 47 82 143 82 176 0 8 -18 24 -39 35 l-39 19 5 62 c6 66 -5
86 -38 68 -27 -14 -195 -11 -206 4 -5 6 -15 32 -22 57 -7 25 -19 60 -27 78 -8
18 -14 53 -14 77 0 24 -4 46 -9 49 -5 4 -12 24 -16 46 -4 22 -15 50 -26 64
-10 13 -19 29 -19 34 0 26 -47 83 -73 88 -15 4 -30 11 -33 15 -3 5 -23 9 -44
9 -21 0 -51 5 -66 10 -33 13 -46 3 -50 -37 -9 -106 -27 -253 -32 -277 -6 -21
-17 -31 -47 -42 -22 -7 -53 -14 -68 -14 -16 0 -54 -12 -85 -26 -81 -36 -87
-40 -90 -55 -2 -11 16 -14 88 -15 85 -1 92 -3 116 -29 51 -55 41 -57 -254 -55
-147 1 -306 0 -354 -2 -86 -4 -87 -3 -74 16 7 11 26 28 41 36 36 20 42 36 16
45 -12 3 -21 13 -21 21 0 24 -23 16 -68 -25 -31 -28 -42 -46 -42 -67 l0 -29
-153 -2 c-83 -1 -158 -2 -164 -3 -10 0 -13 -271 -13 -1320 l0 -1320 1606 0
1606 0 -6 43 c-3 23 -9 71 -12 107 -6 53 -12 70 -37 95 -32 32 -57 82 -57 115
0 33 28 23 35 -13 4 -17 14 -41 22 -52 16 -23 16 -24 -12 174 -8 58 -15 108
-15 113 0 18 21 6 52 -29 60 -68 97 -103 108 -103 19 0 24 32 7 42 -10 5 -17
15 -17 22 0 24 -87 96 -122 100 -32 3 -33 5 -46 72 -7 38 -27 132 -44 209 -17
77 -37 172 -44 210 -79 429 -111 590 -113 568 -3 -32 -19 -8 -25 37 -4 27 -11
50 -16 50 -6 0 -20 21 -33 48 -20 43 -26 47 -60 50 -29 3 -37 7 -33 18 3 8 -3
38 -13 67 -11 28 -22 61 -24 72 -5 19 -5 19 -12 -2 -9 -29 -25 -20 -25 14 0
13 -9 36 -20 50 -11 14 -20 33 -19 42 0 12 2 12 8 -3 5 -14 10 -16 15 -8 11
18 -4 54 -19 48 -8 -3 -11 2 -8 14 3 11 -2 27 -11 35 -9 9 -16 33 -16 53 0 28
3 33 12 24 7 -7 20 -12 31 -12 10 0 16 -3 13 -8 -2 -4 29 -18 71 -32 41 -13
79 -32 84 -41 5 -9 32 -22 60 -29 47 -12 53 -11 77 9 15 12 43 28 62 37 111
47 133 62 200 129 43 43 78 71 86 68 10 -4 14 5 14 31 0 40 -7 40 -72 0 -23
-15 -61 -26 -102 -30 l-65 -7 -33 -55 c-47 -79 -74 -96 -150 -96 -85 0 -189
34 -291 94 -75 44 -85 54 -91 85 -4 19 -4 50 -1 68 3 17 10 73 15 122 5 50 22
200 39 335 16 134 26 249 22 255 -5 5 -11 35 -14 65 -4 30 -8 68 -11 84 -3 21
-2 26 7 17 29 -29 30 11 2 66 -10 18 -15 20 -23 11 -5 -7 -12 -23 -14 -36 -4
-26 -23 -30 -24 -4 0 9 -7 30 -15 45 -12 22 -18 26 -26 15z m-1423 -698 c12
-8 11 -10 -7 -10 -13 0 -23 5 -23 10 0 13 11 13 30 0z m85 -29 c3 -5 1 -12 -5
-16 -5 -3 -10 1 -10 9 0 18 6 21 15 7z m1185 -397 c0 -8 -6 -14 -13 -14 -7 0
-26 -13 -43 -28 -30 -28 -54 -31 -54 -9 0 15 90 78 102 71 4 -3 8 -12 8 -20z
m-40 -73 c0 -5 -6 -14 -14 -20 -12 -10 -13 -8 -9 8 5 21 23 30 23 12z m-120
-26 c0 -15 -48 -76 -71 -89 -35 -21 -50 -21 -21 0 12 8 22 20 22 27 0 13 50
67 62 67 4 0 8 -2 8 -5z m-429 -82 c-8 -15 -10 -15 -11 -2 0 17 10 32 18 25 2
-3 -1 -13 -7 -23z m311 -69 c15 -4 17 -9 7 -20 -6 -8 -17 -14 -23 -14 -7 0
-30 -9 -52 -19 -42 -21 -49 -19 -59 19 -5 23 -1 29 42 53 46 25 48 26 57 7 5
-11 17 -22 28 -26z m-357 -14 c-34 -65 -44 -121 -40 -214 3 -62 1 -84 -5 -68
-6 14 -17 22 -27 20 -16 -3 -18 5 -16 62 1 71 31 155 73 207 31 38 37 35 15
-7z m15 -61 c-6 -31 -8 -88 -4 -133 4 -54 3 -77 -4 -72 -26 16 -23 157 4 249
12 38 14 8 4 -44z m260 -56 c0 -22 -8 -14 -19 20 -10 29 -9 30 4 13 8 -11 15
-26 15 -33z m164 -9 c10 -27 7 -31 -40 -49 -28 -11 -59 -15 -80 -12 -31 5 -34
4 -34 -19 0 -14 -6 -40 -14 -59 -9 -21 -11 -37 -5 -40 5 -4 9 -13 9 -21 0 -8
-5 -12 -10 -9 -6 3 -13 -1 -16 -9 -3 -9 -10 -14 -14 -11 -5 3 -11 -4 -15 -15
-4 -11 -11 -18 -16 -15 -5 4 -9 2 -9 -4 0 -6 -11 -21 -23 -33 -19 -19 -26 -21
-36 -11 -11 12 -7 17 12 14 4 0 7 3 7 7 0 15 41 53 51 47 5 -4 9 0 9 8 0 9 11
37 25 64 14 27 26 70 27 98 l3 50 60 17 c78 21 101 22 109 2z m662 -181 c-3
-7 -1 -25 5 -39 5 -15 7 -29 5 -32 -7 -7 -23 38 -31 84 -6 37 -5 38 10 19 8
-11 13 -25 11 -32z m-752 -29 c13 -5 14 -9 2 -32 -22 -43 -31 -112 -14 -112 7
0 19 9 26 21 7 12 16 18 19 15 4 -3 16 2 27 11 21 18 21 18 4 -2 -14 -17 -15
-26 -5 -58 7 -20 16 -37 21 -37 4 0 3 -7 -4 -15 -8 -9 -9 -15 -2 -15 6 0 13 4
17 10 3 5 19 8 34 7 22 -1 27 -5 19 -14 -8 -10 -3 -13 21 -13 18 0 30 -4 26
-9 -3 -5 -20 -8 -37 -5 -22 2 -37 -2 -50 -16 -10 -10 -18 -22 -18 -25 0 -10
35 -5 64 10 30 16 30 16 11 -5 -14 -16 -16 -23 -7 -32 16 -16 15 -29 -2 -22
-8 3 -19 -3 -26 -15 -8 -17 -8 -26 5 -43 8 -13 15 -31 15 -41 0 -21 -24 -49
-34 -40 -3 4 -6 -2 -7 -13 0 -17 -1 -16 -9 4 -14 32 -30 27 -31 -10 l-1 -33
-13 40 -13 40 -2 -35 -2 -35 -10 28 c-5 15 -14 27 -19 27 -6 0 -7 5 -4 10 3 6
-1 10 -9 10 -11 0 -16 -9 -16 -30 0 -16 -5 -30 -10 -30 -6 0 -9 18 -8 40 2 21
-1 39 -7 39 -5 0 -9 -13 -8 -29 2 -21 -1 -28 -13 -26 -9 1 -20 10 -25 19 -5 9
-16 14 -24 11 -8 -4 -15 -2 -15 4 0 5 10 12 23 15 32 9 62 33 50 40 -6 4 -22
-2 -36 -13 -14 -11 -33 -20 -44 -19 -12 0 -14 2 -4 6 11 5 11 7 0 14 -10 6 -8
9 8 9 12 0 25 4 28 10 4 6 -1 7 -11 3 -12 -4 -15 -3 -10 5 4 7 18 12 32 12 25
0 43 25 29 38 -4 4 -10 1 -12 -5 -8 -24 -25 -13 -21 12 6 29 -14 61 -31 51 -6
-4 -9 -12 -5 -17 3 -6 -2 -19 -11 -29 -15 -16 -19 -17 -31 -5 -15 15 -19 29
-6 21 4 -2 14 0 22 5 12 7 13 11 2 18 -11 6 -10 10 4 15 9 3 14 10 10 14 -8 7
-14 9 -47 11 -17 1 -20 6 -16 23 4 15 -1 31 -16 48 l-22 25 27 -24 c23 -20 30
-22 43 -11 8 7 15 9 15 4 0 -5 5 -1 11 9 5 9 17 17 24 17 8 0 15 6 16 13 0 10
2 10 6 0 10 -27 25 -12 19 20 -5 28 -4 30 8 15 18 -24 36 -23 36 2 0 12 9 30
20 42 11 12 20 29 20 37 0 14 -1 14 -10 1 -8 -13 -10 -12 -10 3 0 19 2 20 24
11z m-115 -108 c-9 -8 -10 -7 -5 7 3 10 7 28 7 40 2 16 3 14 6 -7 3 -16 -1
-34 -8 -40z m191 51 c0 -2 -10 -12 -22 -23 l-23 -19 19 23 c18 21 26 27 26 19z
m-395 -67 c3 -5 1 -10 -4 -10 -6 0 -11 5 -11 10 0 6 2 10 4 10 3 0 8 -4 11
-10z m-221 -9 c3 -5 -5 -11 -19 -13 -20 -4 -23 -3 -14 8 13 16 25 18 33 5z
m56 5 c0 -3 -4 -8 -10 -11 -5 -3 -10 -1 -10 4 0 6 5 11 10 11 6 0 10 -2 10 -4z
m86 -18 c4 -5 -4 -8 -17 -6 -12 1 -24 8 -26 15 -5 14 34 6 43 -9z m97 -23 c-3
-9 -8 -14 -10 -11 -3 3 -2 9 2 15 9 16 15 13 8 -4z m-93 -75 c0 -5 -5 -10 -11
-10 -5 0 -7 5 -4 10 3 6 8 10 11 10 2 0 4 -4 4 -10z m-472 -96 c2 -1 -10 -4
-27 -6 -16 -2 -37 2 -47 9 -16 12 -15 13 7 22 18 6 29 5 44 -8 11 -8 21 -16
23 -17z m69 10 c-9 -9 -28 6 -21 18 4 6 10 6 17 -1 6 -6 8 -13 4 -17z m468 -3
c-3 -6 -11 -11 -17 -11 -6 0 -6 6 2 15 14 17 26 13 15 -4z m-715 -16 c-7 -9
-15 -13 -17 -11 -6 6 20 36 26 30 2 -2 -2 -10 -9 -19z m65 5 c-3 -5 -12 -10
-18 -10 -7 0 -6 4 3 10 19 12 23 12 15 0z m212 -106 c-3 -3 -12 -4 -19 -1 -8
3 -5 6 6 6 11 1 17 -2 13 -5z m53 -9 c0 -2 -6 -5 -13 -8 -8 -3 -14 1 -14 8 0
7 6 11 14 8 7 -3 13 -6 13 -8z m-440 -54 c-12 -17 -23 -31 -26 -31 -6 0 15 40
30 56 21 22 18 5 -4 -25z m1157 7 c-3 -8 -6 -5 -6 6 -1 11 2 17 5 13 3 -3 4
-12 1 -19z m-112 2 c3 -5 2 -10 -4 -10 -5 0 -13 5 -16 10 -3 6 -2 10 4 10 5 0
13 -4 16 -10z m55 0 c0 -5 -7 -7 -15 -4 -8 4 -15 8 -15 10 0 2 7 4 15 4 8 0
15 -4 15 -10z m313 3 c-7 -2 -21 -2 -30 0 -10 3 -4 5 12 5 17 0 24 -2 18 -5z
m-1413 -52 c0 -5 -11 -11 -25 -13 -14 -3 -25 -3 -25 -1 0 3 34 19 48 22 1 1 2
-3 2 -8z m4 -65 c-5 -13 -54 -41 -54 -30 0 7 43 43 52 44 4 0 5 -6 2 -14z m22
-65 c-18 -20 -59 -25 -53 -7 3 9 35 22 61 25 5 1 1 -8 -8 -18z m735 -104 c-10
-9 -11 -8 -5 6 3 10 9 15 12 12 3 -3 0 -11 -7 -18z m-184 -116 c-1 -21 -5 -37
-9 -35 -3 2 -9 -9 -13 -26 -4 -16 -11 -30 -16 -30 -6 0 -8 3 -6 8 3 4 12 33
21 65 9 31 19 57 21 57 3 0 4 -18 2 -39z m134 -46 c9 6 -8 -42 -20 -57 -3 -4
-4 21 -1 55 3 41 5 51 8 29 2 -18 8 -30 13 -27z"/>
<path d="M1890 1550 c0 -5 5 -10 11 -10 5 0 7 5 4 10 -3 6 -8 10 -11 10 -2 0
-4 -4 -4 -10z"/>
<path d="M2110 1510 c-13 -8 -13 -10 2 -10 9 0 20 5 23 10 8 13 -5 13 -25 0z"/>
<path d="M1982 1410 c-5 -22 -8 -40 -7 -40 2 0 10 -2 18 -5 11 -5 14 5 15 40
0 56 -12 58 -26 5z"/>
<path d="M2125 1420 c-3 -5 -2 -10 4 -10 5 0 13 5 16 10 3 6 2 10 -4 10 -5 0
-13 -4 -16 -10z"/>
<path d="M2020 1374 c0 -14 4 -23 10 -19 6 3 10 15 10 26 0 10 -4 19 -10 19
-5 0 -10 -12 -10 -26z"/>
<path d="M4480 3437 c0 -23 11 -47 21 -47 15 0 10 37 -6 50 -12 10 -15 10 -15
-3z"/>
<path d="M7097 3423 c-4 -3 -7 -11 -7 -17 0 -6 5 -5 12 2 6 6 9 14 7 17 -3 3
-9 2 -12 -2z"/>
<path d="M7238 3393 c6 -2 18 -2 25 0 6 3 1 5 -13 5 -14 0 -19 -2 -12 -5z"/>
<path d="M6777 3333 c-9 -8 40 -33 64 -33 22 0 24 11 7 28 -13 13 -60 16 -71
5z"/>
<path d="M6738 3323 c7 -3 16 -2 19 1 4 3 -2 6 -13 5 -11 0 -14 -3 -6 -6z"/>
<path d="M6960 3315 c7 -9 15 -13 17 -11 7 7 -7 26 -19 26 -6 0 -6 -6 2 -15z"/>
<path d="M6888 3313 c7 -3 16 -2 19 1 4 3 -2 6 -13 5 -11 0 -14 -3 -6 -6z"/>
<path d="M5165 3227 c-11 -7 -22 -13 -24 -14 -6 -4 30 -43 39 -43 4 0 7 16 8
35 1 19 0 35 -1 34 -1 0 -11 -6 -22 -12z"/>
<path d="M4646 2884 c-8 -21 -1 -28 18 -21 9 4 13 13 10 22 -8 20 -20 19 -28
-1z"/>
<path d="M1800 2835 c0 -8 5 -15 10 -15 6 0 10 7 10 15 0 8 -4 15 -10 15 -5 0
-10 -7 -10 -15z"/>
<path d="M9385 2780 c-4 -6 6 -9 24 -7 41 5 47 12 11 15 -16 1 -31 -2 -35 -8z"/>
<path d="M247 2774 c-13 -13 -7 -24 14 -24 11 0 19 5 17 12 -5 14 -22 21 -31
12z"/>
<path d="M3590 2541 c-52 -7 -110 -23 -155 -42 -17 -7 -16 -8 5 -4 14 3 81 9
148 14 68 5 129 14 135 20 8 8 7 11 -5 11 -8 0 -28 2 -44 4 -16 2 -54 1 -84
-3z"/>
<path d="M6367 2453 c-4 -3 -7 -11 -7 -17 0 -6 5 -5 12 2 6 6 9 14 7 17 -3 3
-9 2 -12 -2z"/>
<path d="M6447 2333 c-4 -3 -7 -11 -7 -17 0 -6 5 -5 12 2 6 6 9 14 7 17 -3 3
-9 2 -12 -2z"/>
<path d="M3505 2199 c-27 -4 -76 -5 -107 -2 l-58 6 -1 -79 c0 -65 -2 -74 -11
-51 -10 27 -28 28 -28 1 0 -8 4 -13 9 -10 12 8 18 -63 9 -105 -3 -19 -3 -36 1
-39 9 -5 -2 -97 -19 -170 -12 -49 -32 -269 -31 -339 0 -24 -6 -56 -14 -71 -12
-23 -12 -36 0 -93 9 -41 11 -77 6 -95 -6 -19 -4 -40 5 -61 8 -19 14 -46 14
-62 0 -15 10 -39 23 -52 27 -29 57 -41 57 -24 0 8 4 6 10 -3 13 -19 13 -66 0
-90 -11 -20 9 -69 43 -107 11 -13 17 -26 14 -29 -14 -15 -137 82 -137 108 0 4
-6 8 -12 8 -7 0 -29 15 -48 33 -35 34 -86 52 -115 41 -16 -7 -21 -34 -5 -34
13 0 32 -74 24 -94 -4 -12 6 -28 32 -51 22 -19 44 -35 49 -35 6 0 26 -14 45
-30 19 -17 39 -30 46 -30 6 0 19 -9 29 -20 24 -26 33 -25 41 6 4 16 12 23 20
20 8 -3 14 1 14 9 0 8 4 15 10 15 12 0 19 -43 25 -175 4 -60 8 -141 10 -180 2
-38 7 -125 10 -192 l7 -123 60 0 60 0 -6 53 c-3 28 -13 124 -21 212 -15 156
-23 227 -44 390 -24 187 -40 358 -46 480 -8 174 -31 435 -52 570 -21 136 -24
307 -6 300 10 -3 10 0 0 15 -9 16 -9 24 1 41 7 11 11 28 8 37 -5 13 12 26 72
55 42 20 88 37 102 37 14 0 32 5 40 10 18 12 -59 11 -135 -1z m-122 -1158 c-1
-2 -3 3 -3 12 0 10 -6 16 -12 15 -8 -2 -14 9 -16 27 -2 23 0 27 7 15 8 -11 11
-1 12 40 2 49 3 47 9 -25 4 -44 5 -82 3 -84z"/>
<path d="M7031 2186 c-7 -8 -8 -17 -3 -20 6 -3 15 1 21 8 7 8 8 17 3 20 -6 3
-15 -1 -21 -8z"/>
<path d="M6645 2160 c3 -5 11 -10 16 -10 6 0 7 5 4 10 -3 6 -11 10 -16 10 -6
0 -7 -4 -4 -10z"/>
<path d="M6710 2160 c0 -5 5 -10 11 -10 5 0 7 5 4 10 -3 6 -8 10 -11 10 -2 0
-4 -4 -4 -10z"/>
<path d="M6953 2140 c13 -34 27 -40 27 -10 0 11 6 20 13 21 14 0 -22 17 -40
18 -8 1 -8 -6 0 -29z"/>
<path d="M6856 2103 c-15 -31 -24 -58 -21 -61 6 -6 81 76 84 93 2 5 -6 12 -17
16 -15 6 -23 -2 -46 -48z"/>
<path d="M10681 2134 c0 -11 3 -14 6 -6 3 7 2 16 -1 19 -3 4 -6 -2 -5 -13z"/>
<path d="M6620 2125 c7 -9 15 -13 17 -11 7 7 -7 26 -19 26 -6 0 -6 -6 2 -15z"/>
<path d="M6825 2130 c3 -5 8 -10 11 -10 2 0 4 5 4 10 0 6 -5 10 -11 10 -5 0
-7 -4 -4 -10z"/>
<path d="M6584 2116 c5 -14 2 -17 -9 -12 -30 11 -14 -10 27 -34 23 -14 55 -34
72 -45 52 -35 56 -37 56 -26 0 5 -19 23 -43 39 -23 17 -58 45 -76 63 -22 22
-32 27 -27 15z"/>
<path d="M6685 2120 c3 -5 11 -10 16 -10 6 0 7 5 4 10 -3 6 -11 10 -16 10 -6
0 -7 -4 -4 -10z"/>
<path d="M6755 2120 c3 -5 10 -10 16 -10 5 0 9 5 9 10 0 6 -7 10 -16 10 -8 0
-12 -4 -9 -10z"/>
<path d="M9386 2114 c-4 -9 -4 -19 -1 -22 2 -3 7 3 11 12 4 9 4 19 1 22 -2 3
-7 -3 -11 -12z"/>
<path d="M10620 2121 l-24 -7 23 -16 c21 -15 21 -17 4 -21 -15 -4 -15 -5 -1
-6 12 -1 18 -12 21 -38 2 -21 4 -8 4 30 1 37 1 67 0 66 -1 -1 -13 -4 -27 -8z"/>
<path d="M10662 2095 c0 -16 2 -22 5 -12 2 9 2 23 0 30 -3 6 -5 -1 -5 -18z"/>
<path d="M6800 2100 c0 -5 7 -10 15 -10 8 0 15 5 15 10 0 6 -7 10 -15 10 -8 0
-15 -4 -15 -10z"/>
<path d="M6663 2083 c9 -9 19 -14 23 -11 10 10 -6 28 -24 28 -15 0 -15 -1 1
-17z"/>
<path d="M6720 2095 c0 -2 9 -9 20 -15 16 -9 20 -8 20 5 0 8 -9 15 -20 15 -11
0 -20 -2 -20 -5z"/>
<path d="M6780 2064 c0 -17 22 -14 28 4 2 7 -3 12 -12 12 -9 0 -16 -7 -16 -16z"/>
<path d="M6700 2062 c0 -18 19 -24 37 -13 10 6 13 11 6 11 -6 0 -18 3 -27 6
-9 3 -16 1 -16 -4z"/>
<path d="M6745 2030 c-4 -6 6 -10 22 -10 22 0 25 2 13 10 -19 12 -27 12 -35 0z"/>
<path d="M6550 2013 c0 -8 -15 -13 -41 -13 -24 0 -38 -4 -34 -10 3 -5 -1 -10
-9 -10 -9 0 -16 -4 -16 -10 0 -13 13 -13 26 0 6 6 29 14 52 18 34 6 40 10 32
22 -6 10 -10 11 -10 3z"/>
<path d="M9220 1970 c0 -5 5 -10 10 -10 6 0 10 5 10 10 0 6 -4 10 -10 10 -5 0
-10 -4 -10 -10z"/>
<path d="M9308 1923 c-3 -4 -10 -28 -17 -53 -7 -25 -17 -52 -21 -61 -5 -9 -6
-20 -2 -23 3 -4 17 26 29 65 13 39 22 74 19 76 -2 2 -6 1 -8 -4z"/>
<path d="M10021 1884 c0 -11 3 -14 6 -6 3 7 2 16 -1 19 -3 4 -6 -2 -5 -13z"/>
<path d="M9247 1763 c-2 -5 -9 -27 -16 -49 -8 -23 -24 -53 -37 -68 -32 -34
-30 -42 3 -16 15 11 32 35 39 53 6 18 16 44 22 60 7 15 7 27 2 27 -5 0 -11 -3
-13 -7z"/>
<path d="M9175 1520 c11 -5 27 -9 35 -9 9 0 8 4 -5 9 -11 5 -27 9 -35 9 -9 0
-8 -4 5 -9z"/>
<path d="M9731 1466 c-9 -11 -8 -15 5 -20 22 -8 24 -8 24 8 0 21 -16 28 -29
12z"/>
<path d="M10455 1440 c-3 -5 1 -10 9 -10 9 0 16 5 16 10 0 6 -4 10 -9 10 -6 0
-13 -4 -16 -10z"/>
<path d="M9680 1415 c-20 -24 -6 -28 15 -5 10 11 13 20 8 20 -6 0 -16 -7 -23
-15z"/>
<path d="M9724 1399 l-19 -22 33 17 c34 18 40 26 19 26 -8 0 -22 -10 -33 -21z"/>
<path d="M9755 1380 c-3 -5 1 -10 9 -10 9 0 16 5 16 10 0 6 -4 10 -9 10 -6 0
-13 -4 -16 -10z"/>
<path d="M9710 1345 c-7 -8 -8 -15 -2 -15 5 0 15 7 22 15 7 8 8 15 2 15 -5 0
-15 -7 -22 -15z"/>
<path d="M9760 1331 c-17 -14 -20 -20 -10 -21 22 0 43 16 38 30 -2 8 -11 5
-28 -9z"/>
<path d="M9700 1280 c0 -5 7 -7 15 -4 8 4 15 8 15 10 0 2 -7 4 -15 4 -8 0 -15
-4 -15 -10z"/>
<path d="M9748 1276 c-10 -7 -18 -16 -18 -20 0 -11 34 -6 52 8 18 13 14 26 -6
26 -6 0 -19 -7 -28 -14z"/>
<path d="M9780 1241 c-6 -12 -17 -21 -24 -21 -8 0 -19 -7 -26 -15 -20 -24 23
-19 45 5 10 11 25 20 32 20 8 0 13 5 11 12 -7 21 -26 20 -38 -1z"/>
<path d="M9686 1214 c-9 -8 -16 -18 -16 -20 0 -7 38 15 45 26 10 16 -12 12
-29 -6z"/>
<path d="M6580 1210 c0 -5 5 -10 11 -10 5 0 7 5 4 10 -3 6 -8 10 -11 10 -2 0
-4 -4 -4 -10z"/>
<path d="M9790 1195 c-7 -8 -10 -18 -7 -21 9 -10 48 7 44 19 -6 18 -23 19 -37
2z"/>
<path d="M9679 1154 c-10 -13 -10 -17 2 -25 8 -5 21 -9 29 -9 13 0 13 2 1 9
-8 5 -11 16 -8 25 8 21 -7 21 -24 0z"/>
<path d="M9825 1157 c-4 -10 -3 -23 4 -30 16 -16 23 -3 12 24 -8 22 -10 22
-16 6z"/>
<path d="M9737 1154 c-14 -14 -6 -24 19 -24 16 0 24 5 22 13 -5 14 -31 21 -41
11z"/>
<path d="M9780 1110 c0 -12 48 -25 58 -16 8 9 -18 26 -40 26 -10 0 -18 -4 -18
-10z"/>
<path d="M9726 1103 c-7 -7 24 -32 42 -33 6 0 12 4 12 8 0 11 -46 32 -54 25z"/>
<path d="M9685 1080 c10 -11 25 -20 34 -20 12 0 9 6 -9 20 -33 26 -48 26 -25
0z"/>
<path d="M9580 1086 c0 -2 7 -9 15 -16 13 -11 14 -10 9 4 -5 14 -24 23 -24 12z"/>
<path d="M9632 1078 c5 -15 28 -23 28 -10 0 5 -7 13 -16 16 -10 4 -14 1 -12
-6z"/>
<path d="M9850 1070 c0 -5 5 -10 10 -10 6 0 10 5 10 10 0 6 -4 10 -10 10 -5 0
-10 -4 -10 -10z"/>
<path d="M9802 1052 c-9 -6 -7 -11 10 -19 32 -14 55 -5 31 13 -21 16 -24 16
-41 6z"/>
<path d="M9586 1027 c3 -10 9 -15 12 -12 3 3 0 11 -7 18 -10 9 -11 8 -5 -6z"/>
<path d="M9639 1020 c13 -11 28 -20 35 -20 6 0 0 9 -14 20 -33 26 -52 25 -21
0z"/>
<path d="M9695 1020 c10 -11 25 -20 34 -20 12 1 10 5 -8 20 -30 26 -49 26 -26
0z"/>
<path d="M9750 1025 c7 -8 22 -15 34 -15 21 1 21 1 2 15 -27 21 -53 20 -36 0z"/>
<path d="M9865 1010 c3 -5 10 -10 16 -10 5 0 9 5 9 10 0 6 -7 10 -16 10 -8 0
-12 -4 -9 -10z"/>
<path d="M9815 990 c-7 -11 35 -31 49 -22 5 3 1 11 -9 19 -22 16 -32 16 -40 3z"/>
<path d="M9570 986 c0 -11 49 -56 61 -56 7 0 0 13 -16 30 -26 27 -45 38 -45
26z"/>
<path d="M6592 960 c0 -14 2 -19 5 -12 2 6 2 18 0 25 -3 6 -5 1 -5 -13z"/>
<path d="M9655 956 c30 -26 51 -34 40 -16 -3 6 -21 17 -38 26 l-32 15 30 -25z"/>
<path d="M9690 972 c0 -5 16 -16 35 -25 40 -19 45 -14 13 14 -24 19 -48 25
-48 11z"/>
<path d="M9779 960 c12 -11 28 -17 33 -14 6 4 0 13 -13 20 -36 20 -47 16 -20
-6z"/>
<path d="M9896 962 c-3 -6 -1 -14 5 -17 15 -10 25 3 12 16 -7 7 -13 7 -17 1z"/>
<path d="M3085 940 c3 -5 8 -10 11 -10 2 0 4 5 4 10 0 6 -5 10 -11 10 -5 0 -7
-4 -4 -10z"/>
<path d="M9550 930 c0 -5 5 -10 10 -10 6 0 10 5 10 10 0 6 -4 10 -10 10 -5 0
-10 -4 -10 -10z"/>
<path d="M9840 931 c0 -5 9 -11 20 -14 24 -6 27 8 4 17 -21 8 -24 8 -24 -3z"/>
<path d="M9794 905 c11 -8 27 -15 35 -15 13 1 12 4 -3 15 -11 8 -27 15 -35 15
-13 -1 -12 -4 3 -15z"/>
<path d="M9910 911 c0 -6 5 -13 10 -16 6 -3 10 1 10 9 0 9 -4 16 -10 16 -5 0
-10 -4 -10 -9z"/>
<path d="M9663 903 c-8 -3 -5 -11 8 -24 21 -21 53 -26 47 -7 -6 16 -41 37 -55
31z"/>
<path d="M9593 885 c0 -8 9 -15 20 -15 16 0 17 3 7 15 -7 8 -16 15 -20 15 -3
0 -7 -7 -7 -15z"/>
<path d="M9750 896 c0 -3 9 -10 20 -16 11 -6 20 -8 20 -6 0 3 -9 10 -20 16
-11 6 -20 8 -20 6z"/>
<path d="M9870 880 c-12 -8 -10 -10 8 -10 13 0 20 4 17 10 -7 12 -6 12 -25 0z"/>
<path d="M6601 864 c0 -11 3 -14 6 -6 3 7 2 16 -1 19 -3 4 -6 -2 -5 -13z"/>
<path d="M9926 861 c-3 -5 1 -11 9 -15 9 -3 15 0 15 9 0 16 -16 20 -24 6z"/>
<path d="M9825 850 c3 -5 8 -10 11 -10 2 0 4 5 4 10 0 6 -5 10 -11 10 -5 0 -7
-4 -4 -10z"/>
<path d="M9670 840 c0 -5 5 -10 11 -10 5 0 7 5 4 10 -3 6 -8 10 -11 10 -2 0
-4 -4 -4 -10z"/>
<path d="M9765 839 c-18 -6 -18 -8 -3 -14 25 -10 49 -3 34 11 -6 6 -20 8 -31
3z"/>
<path d="M9870 826 c0 -10 28 -13 41 -5 10 6 7 9 -13 9 -16 0 -28 -2 -28 -4z"/>
<path d="M9825 800 c-3 -5 1 -10 9 -10 8 0 18 5 21 10 3 6 -1 10 -9 10 -8 0
-18 -4 -21 -10z"/>
<path d="M6480 771 c0 -6 4 -13 10 -16 6 -3 7 1 4 9 -7 18 -14 21 -14 7z"/>
<path d="M9476 589 c-23 -22 -18 -24 18 -6 14 8 23 17 19 20 -10 10 -16 8 -37
-14z"/>
<path d="M6500 591 c-8 -6 -18 -7 -22 -5 -4 3 -8 -2 -8 -10 0 -8 4 -17 9 -20
4 -3 11 -36 14 -74 5 -62 31 -132 50 -132 9 0 10 -3 -14 60 -17 44 -20 69 -16
123 3 37 5 67 4 67 -1 0 -9 -4 -17 -9z"/>
<path d="M6575 467 c-7 -64 -5 -95 10 -157 6 -25 6 -25 -12 3 -10 16 -27 27
-40 27 -14 0 -23 6 -23 15 0 8 -4 15 -10 15 -13 0 -13 -17 1 -25 6 -4 8 -14 5
-22 -4 -11 -2 -13 9 -9 17 6 21 -9 5 -19 -8 -5 -7 -12 2 -23 10 -12 10 -16 1
-19 -7 -3 -13 -9 -13 -15 0 -6 7 -7 16 -4 17 7 44 -9 44 -26 0 -6 -7 -5 -15 2
-23 19 -31 3 -15 -25 23 -37 32 -34 46 20 23 90 41 291 25 281 -5 -4 -14 6
-19 21 -8 25 -10 20 -17 -40z"/>
<path d="M3203 393 c9 -2 25 -2 35 0 9 3 1 5 -18 5 -19 0 -27 -2 -17 -5z"/>
<path d="M10035 380 c3 -5 10 -10 16 -10 5 0 9 5 9 10 0 6 -7 10 -16 10 -8 0
-12 -4 -9 -10z"/>
<path d="M9925 371 c-6 -11 9 -23 19 -14 9 9 7 23 -3 23 -6 0 -12 -4 -16 -9z"/>
<path d="M9251 194 c0 -11 3 -14 6 -6 3 7 2 16 -1 19 -3 4 -6 -2 -5 -13z"/>
<path d="M9280 186 c0 -8 5 -18 10 -21 6 -3 10 1 10 9 0 8 -4 18 -10 21 -5 3
-10 -1 -10 -9z"/>
<path d="M9330 170 c0 -19 3 -21 12 -12 9 9 9 15 0 24 -9 9 -12 7 -12 -12z"/>
<path d="M3238 163 c7 -3 16 -2 19 1 4 3 -2 6 -13 5 -11 0 -14 -3 -6 -6z"/>
<path d="M3275 150 c3 -5 11 -10 16 -10 6 0 7 5 4 10 -3 6 -11 10 -16 10 -6 0
-7 -4 -4 -10z"/>
</g>
</svg>
